<?xml version="1.0" encoding="utf-8"?>
<!-- Generator: Adobe Illustrator 24.3.0, SVG Export Plug-In . SVG Version: 6.00 Build 0)  -->
<svg version="1.1" id="Слой_1" xmlns="http://www.w3.org/2000/svg" xmlns:xlink="http://www.w3.org/1999/xlink" x="0px" y="0px"
	 viewBox="0 0 1920 1080" style="enable-background:new 0 0 1920 1080;" xml:space="preserve">
<style type="text/css">
	.st0{fill:#292929;}
	.st1{fill:#FABDD9;}
</style>
<g>
	<circle class="st0" cx="743.51" cy="466.98" r="110"/>
</g>
<g>
	<circle class="st1" cx="744" cy="467" r="100"/>
</g>
<g>
	<path class="st0" d="M670.6,449.44h6.4c0.78,0,1.42,0.22,1.9,0.66c0.48,0.44,0.72,1,0.72,1.7v29.23h4.32
		c0.77,0,1.39,0.21,1.86,0.64c0.47,0.43,0.71,1,0.71,1.71c0,0.69-0.24,1.26-0.72,1.7c-0.48,0.44-1.1,0.66-1.85,0.66H670.6
		c-0.78,0-1.42-0.22-1.9-0.66c-0.48-0.44-0.72-1-0.72-1.7s0.25-1.26,0.74-1.7s1.12-0.66,1.89-0.66h4.27v-26.88h-4.27
		c-0.8,0-1.44-0.21-1.91-0.64c-0.47-0.43-0.71-1-0.71-1.71c0-0.69,0.25-1.26,0.74-1.7S669.83,449.44,670.6,449.44z"/>
	<path class="st0" d="M709.26,459.28h5.2c0.78,0,1.56,0.14,2.34,0.42c0.77,0.28,1.49,0.69,2.15,1.22l2.02,1.61
		c0.77,0.64,1.38,1.44,1.83,2.41c0.46,0.97,0.68,1.96,0.68,2.98v9.19c0,1-0.22,1.98-0.67,2.93c-0.45,0.95-1.06,1.74-1.85,2.38
		l-2.02,1.7c-0.66,0.51-1.37,0.91-2.15,1.19c-0.77,0.28-1.55,0.42-2.34,0.42h-5.2c-0.78,0-1.55-0.14-2.3-0.41
		c-0.75-0.27-1.46-0.67-2.13-1.2l-2.02-1.7c-0.78-0.64-1.4-1.43-1.85-2.38c-0.45-0.95-0.67-1.92-0.67-2.93v-9.19
		c0-1.02,0.22-2.01,0.67-2.98c0.45-0.97,1.06-1.77,1.85-2.41l2.02-1.61c0.67-0.55,1.39-0.96,2.13-1.23
		C707.71,459.42,708.48,459.28,709.26,459.28z M709.32,463.93c-0.24,0-0.48,0.05-0.72,0.15c-0.25,0.1-0.5,0.24-0.75,0.42l-2,1.67
		c-0.26,0.2-0.46,0.46-0.62,0.78c-0.16,0.32-0.23,0.64-0.23,0.97v9.19c0,0.33,0.08,0.65,0.23,0.96c0.15,0.31,0.36,0.57,0.62,0.77
		l2.02,1.7c0.22,0.16,0.45,0.29,0.7,0.37s0.5,0.12,0.75,0.12h5.14c0.25,0,0.51-0.05,0.77-0.14c0.25-0.09,0.49-0.22,0.71-0.38l2-1.67
		c0.24-0.18,0.44-0.44,0.6-0.77s0.25-0.65,0.25-0.96v-9.19c0-0.33-0.08-0.65-0.23-0.97c-0.16-0.32-0.35-0.57-0.59-0.75l-2.05-1.7
		c-0.24-0.18-0.48-0.32-0.72-0.42c-0.25-0.1-0.49-0.15-0.72-0.15H709.32z"/>
	<path class="st0" d="M737.54,465.21h17.94c0.78,0,1.42,0.22,1.9,0.66c0.48,0.44,0.72,1,0.72,1.7v1.97c0,0.69-0.25,1.27-0.75,1.72
		c-0.5,0.46-1.13,0.68-1.87,0.68h-17.94c-0.78,0-1.42-0.22-1.9-0.67c-0.48-0.45-0.72-1.03-0.72-1.74v-1.97
		c0-0.67,0.25-1.23,0.74-1.68C736.14,465.44,736.77,465.21,737.54,465.21z"/>
	<path class="st0" d="M783.48,449.44h5.44c0.78,0,1.42,0.22,1.9,0.66c0.48,0.44,0.72,1,0.72,1.7c0,0.67-0.25,1.24-0.74,1.68
		c-0.49,0.45-1.12,0.67-1.89,0.67h-5.44c-0.95,0-1.77,0.36-2.47,1.07c-0.7,0.71-1.05,1.53-1.05,2.46v1.61h4.38
		c0.78,0,1.42,0.22,1.9,0.66c0.48,0.44,0.72,1,0.72,1.7c0,0.69-0.25,1.26-0.74,1.7s-1.12,0.66-1.89,0.66h-4.38v19.11
		c0,0.78-0.22,1.42-0.66,1.9c-0.44,0.48-1,0.72-1.7,0.72c-0.69,0-1.26-0.25-1.7-0.74s-0.66-1.12-0.66-1.89v-19.11h-1.97
		c-0.8,0-1.44-0.21-1.91-0.64c-0.47-0.43-0.71-1-0.71-1.71c0-0.67,0.25-1.23,0.74-1.68c0.49-0.45,1.12-0.67,1.89-0.67h1.97v-1.61
		c0-2.26,0.81-4.2,2.43-5.81C779.3,450.24,781.23,449.44,783.48,449.44z"/>
	<path class="st0" d="M809.07,459.28h6.4c0.78,0,1.42,0.22,1.9,0.66c0.48,0.44,0.72,1,0.72,1.7v19.39h4.32
		c0.77,0,1.39,0.21,1.86,0.64c0.47,0.43,0.71,1,0.71,1.71c0,0.69-0.24,1.26-0.72,1.7c-0.48,0.44-1.1,0.66-1.85,0.66h-13.34
		c-0.78,0-1.42-0.22-1.9-0.66c-0.48-0.44-0.72-1-0.72-1.7s0.25-1.26,0.74-1.7s1.12-0.66,1.89-0.66h4.27v-17.04h-4.27
		c-0.8,0-1.44-0.21-1.91-0.64c-0.47-0.43-0.71-1-0.71-1.71c0-0.67,0.25-1.23,0.74-1.68C807.67,459.5,808.3,459.28,809.07,459.28z
		 M813.66,447.47h2.3c0.53,0,1.02,0.24,1.46,0.71c0.45,0.47,0.67,1.02,0.67,1.64v1.97c0,0.67-0.25,1.24-0.74,1.68
		c-0.49,0.45-1.12,0.67-1.89,0.67h-1.8c-0.8,0-1.44-0.21-1.91-0.64c-0.47-0.43-0.71-1-0.71-1.71v-1.97c0-0.69,0.24-1.26,0.72-1.7
		C812.25,447.69,812.88,447.47,813.66,447.47z"/>
</g>
</svg>
