<?xml version="1.0" standalone="no"?>
<!DOCTYPE svg PUBLIC "-//W3C//DTD SVG 1.1//EN" "http://www.w3.org/Graphics/SVG/1.1/DTD/svg11.dtd" >
<svg>
<metadata>
Created by FontForge 20090914 at Sun Jan 24 21:49:22 2021
 By www-data
Copyright 1990-2001 Bitstream Inc. All rights reserved.
</metadata>
<defs>
<font id="OCRAbyBT-Regular" horiz-adv-x="1266" >
  <font-face 
    font-family="OCR-A BT"
    font-weight="400"
    font-stretch="normal"
    units-per-em="2048"
    panose-1="2 15 5 1 2 2 4 2 3 4"
    ascent="1556"
    descent="-492"
    x-height="880.998"
    cap-height="1241"
    bbox="95.9961 -446 3936 1802"
    underline-thickness="123"
    underline-position="-162"
    unicode-range="U+0020-U+203A"
  />
<missing-glyph 
d="M121 -362v1806h1024v-1806h-1024zM236 -248h794v1577h-794v-1577z" />
    <glyph glyph-name=".notdef" 
d="M121 -362v1806h1024v-1806h-1024zM236 -248h794v1577h-794v-1577z" />
    <glyph glyph-name="space" unicode=" " horiz-adv-x="633" 
 />
    <glyph glyph-name="exclam" unicode="!" 
d="M592 158l82 0.000976562c25.333 0 46.333 -8.83301 63 -26.5s25 -40.5 25 -68.5v-53c0 -28.667 -8.33301 -51.834 -25 -69.501s-37.667 -26.5 -63 -26.5h-82c-25.333 0 -46 9 -62 27s-24 41 -24 69v53c0 29.333 7.83301 52.5 23.5 69.5s36.5 25.5 62.5 25.5zM586 1241
l94 -0.00195312c22.667 0 42 -8.66699 58 -26s24 -38.666 24 -63.999v-8l-41 -628c-2.66699 -30.667 -11.5 -54.167 -26.5 -70.5s-34.833 -24.5 -59.5 -24.5c-25.333 0 -45.833 8.16699 -61.5 24.5s-24.5 38.833 -26.5 67.5l-41 631v8c0 26.667 7.5 48.334 22.5 65.001
s34.167 25 57.5 25z" />
    <glyph glyph-name="quotedbl" unicode="&#x22;" 
d="M1057 1141l-75.999 -410.003c-5.33301 -29.333 -16.5 -52.666 -33.5 -69.999s-37.167 -26 -60.5 -26c-25.333 0 -45 7.33301 -59 22s-24.333 39.334 -31 74.001l-66 338h-196l-66 -338c-6.66699 -33.333 -17.167 -57.666 -31.5 -72.999s-33.833 -23 -58.5 -23
c-23.333 0 -43.333 8.5 -60 25.5s-27.334 40.5 -32.001 70.5l-78 410v100h848v-100z" />
    <glyph glyph-name="numbersign" unicode="#" 
d="M551 780v-188h164v188h-164zM961 952c28.667 0 51.8311 -7.99805 69.498 -23.998s26.5 -36.667 26.5 -62c0 -24.667 -9 -45.167 -27 -61.5s-41 -24.5 -69 -24.5h-74v-188h74c28.667 0 51.834 -8 69.501 -24s26.5 -36.667 26.5 -62s-9.16699 -46.333 -27.5 -63
s-41.166 -25 -68.499 -25h-74v-193c0 -28.667 -8 -51.5 -24 -68.5s-36.667 -25.5 -62 -25.5s-46 8.66699 -62 26s-24 40 -24 68v193h-164v-193c0 -28.667 -8 -51.5 -24 -68.5s-36.667 -25.5 -62 -25.5s-46 8.66699 -62 26s-24 40 -24 68v193h-74
c-28.667 0 -51.834 8.16699 -69.501 24.5s-26.5 37.5 -26.5 63.5c0 24.667 9 45.167 27 61.5s41 24.5 69 24.5h74v188h-74c-29.333 0 -52.666 8 -69.999 24s-26 36.667 -26 62s9 46 27 62s41 24 69 24h74v193c0 29.333 7.83301 52.666 23.5 69.999s36.5 26 62.5 26
c24.667 0 45.167 -9 61.5 -27s24.5 -41 24.5 -69v-193h164v193c0 29.333 7.83301 52.666 23.5 69.999s36.5 26 62.5 26c24.667 0 45.167 -9 61.5 -27s24.5 -41 24.5 -69v-193h74z" />
    <glyph glyph-name="dollar" unicode="$" 
d="M719 1145l-0.00195312 -192.998h242c28.667 0 51.834 -8 69.501 -24s26.5 -36.667 26.5 -62c0 -24.667 -9 -45.167 -27 -61.5s-41 -24.5 -69 -24.5h-580v-116h590c24.667 0 45.167 -9 61.5 -27s24.5 -41.333 24.5 -70v-268c0 -29.333 -7.83301 -52.666 -23.5 -69.999
s-36.5 -26 -62.5 -26h-252v-193c0 -28.667 -8 -51.834 -24 -69.501s-36.667 -26.5 -62 -26.5s-46 9 -62 27s-24 41 -24 69v193h-242c-29.333 0 -52.666 7.83301 -69.999 23.5s-26 36.5 -26 62.5c0 24.667 9 45.167 27 61.5s41 24.5 69 24.5h580v117h-590
c-25.333 0 -46 9 -62 27s-24 41 -24 69v268c0 29.333 7.83301 52.666 23.5 69.999s36.5 26 62.5 26h252v193c0 29.333 7.83301 52.666 23.5 69.999s36.5 26 62.5 26c24.667 0 45.167 -9 61.5 -27s24.5 -41 24.5 -69z" />
    <glyph glyph-name="percent" unicode="%" 
d="M803 231l168 0.00195312c24.667 0 45.167 -9 61.5 -27s24.5 -41 24.5 -69v-125c0 -28.667 -8 -51.834 -24 -69.501s-36.667 -26.5 -62 -26.5h-168c-25.333 0 -46 9 -62 27s-24 41 -24 69v125c0 29.333 7.83301 52.666 23.5 69.999s36.5 26 62.5 26zM1032 952.002
l-662.999 -853.999c-10.667 -13.333 -21.834 -23.166 -33.501 -29.499s-25.167 -9.5 -40.5 -9.5c-24 0 -44.333 8.16699 -61 24.5s-25 36.166 -25 59.499c0 10 2 20.167 6 30.5s10 20.833 18 31.5l664 852c10.667 13.333 22.167 23.5 34.5 30.5s25.5 10.5 39.5 10.5
c22.667 0 42.667 -8.33301 60 -25s26 -36.334 26 -59.001c0 -10 -2.16699 -20.167 -6.5 -30.5s-10.5 -20.833 -18.5 -31.5zM295.001 1241h168c24.667 0 45.167 -9 61.5 -27s24.5 -41 24.5 -69v-125c0 -29.333 -7.83301 -52.666 -23.5 -69.999s-36.5 -26 -62.5 -26h-168
c-25.333 0 -46 9 -62 27s-24 41 -24 69v125c0 29.333 7.83301 52.666 23.5 69.999s36.5 26 62.5 26z" />
    <glyph glyph-name="ampersand" unicode="&#x26;" 
d="M516 365l-135 -113v-80c0 -24 8.5 -44.333 25.5 -61s37.167 -25 60.5 -25h135l98 84zM469 924c-22.667 0 -43 -8.5 -61 -25.5s-27 -37.167 -27 -60.5v-82l145 -156l189 160v78c0 23.333 -8.66699 43.5 -26 60.5s-37.333 25.5 -60 25.5h-160zM467 1098l162.003 0.00195312
c71.333 0 132.166 -25.333 182.499 -76s75.5 -112 75.5 -184v-101c0 -18.667 -2.83301 -34.5 -8.5 -47.5s-15.167 -25.833 -28.5 -38.5l-203 -176l184 -192l76 65c12 9.33301 23.167 16.166 33.5 20.499s21.166 6.5 32.499 6.5c22 0 41.5 -8.5 58.5 -25.5
s25.5 -36.5 25.5 -58.5c0 -13.333 -3.16699 -26.166 -9.5 -38.499s-15.5 -23.5 -27.5 -33.5l-74 -61l80 -92c11.333 -13.333 19.333 -25 24 -35s7 -21 7 -33c0 -22.667 -8.33301 -42.334 -25 -59.001s-36.334 -25 -59.001 -25c-12.667 0 -25.334 3 -38.001 9
s-24 14.667 -34 26l-84 94l-151 -129h-197c-72 0 -133.333 25.167 -184 75.5s-76 111.166 -76 182.499v102c0 20 2.83301 36.667 8.5 50s15.167 25.333 28.5 36l153 127l-159 170c-11.333 12 -19.333 24.167 -24 36.5s-7 30.5 -7 54.5v90c0 70.667 25.333 131.667 76 183
s111.334 77 182.001 77z" />
    <glyph glyph-name="quotesingle" unicode="'" 
d="M801 1131l-84.002 -422.001c-4 -22.667 -13.667 -40.667 -29 -54s-33.666 -20 -54.999 -20s-39.666 6.66699 -54.999 20s-25 31.333 -29 54l-82 422c-0.666992 2.66699 -1.16699 5.66699 -1.5 9s-0.5 8.33301 -0.5 15c0 30 8.83301 51.833 26.5 65.5s45.5 20.5 83.5 20.5
h115c39.333 0 68 -7.16699 86 -21.5s27 -37.166 27 -68.499c0 -4.66699 -0.166992 -8.5 -0.5 -11.5s-0.833008 -5.83301 -1.5 -8.5z" />
    <glyph glyph-name="parenleft" unicode="(" 
d="M864 1093l-184.002 -235.002c-14 -18 -25 -38 -33 -60s-12 -43 -12 -63v-315c0 -19.333 4 -39.833 12 -61.5s19 -42.167 33 -61.5l184 -237c7.33301 -10 13 -20 17 -30s6 -20 6 -30c0 -23.333 -8.33301 -43.166 -25 -59.499s-36.334 -24.5 -59.001 -24.5
c-15.333 0 -29.333 3.33301 -42 10s-24 16.334 -34 29.001l-170 219c-32.667 42.667 -56.5 83.667 -71.5 123s-22.5 80.333 -22.5 123v315c0 42 7.33301 82.5 22 121.5s38.667 79.833 72 122.5l170 219c10.667 13.333 22.334 23.5 35.001 30.5s26.334 10.5 41.001 10.5
c22.667 0 42.334 -8.5 59.001 -25.5s25 -37.167 25 -60.5c0 -10 -2 -20 -6 -30s-9.66699 -20 -17 -30z" />
    <glyph glyph-name="parenright" unicode=")" 
d="M538 1199l170.998 -220c32 -42.667 55.667 -83.5 71 -122.5s23 -79.5 23 -121.5v-315c0 -42.667 -7.5 -83.667 -22.5 -123s-38.833 -80.333 -71.5 -123l-170 -219c-10 -12.667 -21.5 -22.334 -34.5 -29.001s-26.833 -10 -41.5 -10
c-23.333 0 -43.166 8.16699 -59.499 24.5s-24.5 36.166 -24.5 59.499c0 8.66699 2.16699 18.334 6.5 29.001s10.5 21 18.5 31l182 237c14 18 25 38 33 60s12 43 12 63v315c0 20 -4 41 -12 63s-19 42 -33 60l-182 235c-8 10 -14.167 20.333 -18.5 31s-6.5 20.334 -6.5 29.001
c0 23.333 8.33301 43.5 25 60.5s36.334 25.5 59.001 25.5c14 0 27.5 -3.5 40.5 -10.5s24.5 -16.833 34.5 -29.5z" />
    <glyph glyph-name="asterisk" unicode="*" 
d="M719 1001l-0.00292969 -237l188 162c10.667 9.33301 21 16 31 20s21 6 33 6c22.667 0 42.334 -8.33301 59.001 -25s25 -36.334 25 -59.001c0 -14 -3 -27 -9 -39s-14.667 -22.667 -26 -32l-254 -219l254 -218c11.333 -9.33301 20 -20 26 -32s9 -25 9 -39
c0 -22.667 -8 -42.667 -24 -60s-34 -26 -54 -26c-14 0 -26.667 2.16699 -38 6.5s-21.666 10.833 -30.999 19.5l-189 160v-235c0 -29.333 -8 -52.833 -24 -70.5s-36.667 -26.5 -62 -26.5s-46 9 -62 27s-24 41.333 -24 70v235l-189 -160
c-12.667 -10.667 -23.667 -17.667 -33 -21s-20.666 -5 -33.999 -5c-21.333 0 -40 8.33301 -56 25s-24 37 -24 61c0 14 2.83301 27 8.5 39s14.5 22.667 26.5 32l252 218l-252 219c-12.667 10 -22 20.833 -28 32.5s-9 23.834 -9 36.501c0 24 8.16699 44.333 24.5 61
s36.166 25 59.499 25c12.667 0 24.334 -2.16699 35.001 -6.5s20.667 -10.833 30 -19.5l189 -164v239c0 29.333 7.83301 52.833 23.5 70.5s36.5 26.5 62.5 26.5c24.667 0 45.167 -9 61.5 -27s24.5 -41.333 24.5 -70z" />
    <glyph glyph-name="plus" unicode="+" 
d="M547 250l-0.00195312 242.002h-242c-29.333 0 -52.666 7.83301 -69.999 23.5s-26 36.5 -26 62.5c0 24.667 9 45.167 27 61.5s41 24.5 69 24.5h242v241c0 29.333 7.83301 52.666 23.5 69.999s36.5 26 62.5 26c24.667 0 45.167 -9 61.5 -27s24.5 -41 24.5 -69v-241h242
c28.667 0 51.834 -8 69.501 -24s26.5 -36.667 26.5 -62s-9 -46 -27 -62s-41 -24 -69 -24h-242v-242c0 -28.667 -8 -51.834 -24 -69.501s-36.667 -26.5 -62 -26.5s-46 9 -62 27s-24 41 -24 69z" />
    <glyph glyph-name="comma" unicode="," 
d="M473 518l328 0.000976562c25.333 0 46 -8.66699 62 -26s24 -40 24 -68v-414c0 -28.667 -8 -51.834 -24 -69.501s-36.667 -26.5 -62 -26.5s-46 9 -62 27s-24 41 -24 69v336h-242c-29.333 0 -52.333 7.83301 -69 23.5s-25 36.5 -25 62.5c0 25.333 8.66699 46 26 62
s40 24 68 24z" />
    <glyph glyph-name="hyphen" unicode="-" 
d="M305 664h655.999c28.667 0 51.834 -8 69.501 -24s26.5 -36.667 26.5 -62v-72c0 -25.333 -9.16699 -46.333 -27.5 -63s-41.166 -25 -68.499 -25h-656c-28.667 0 -51.834 8.16699 -69.501 24.5s-26.5 37.5 -26.5 63.5v72c0 24.667 9 45.167 27 61.5s41 24.5 69 24.5z" />
    <glyph glyph-name="period" unicode="." 
d="M549 446l168 -0.000976562c25.333 0 46 -8.66699 62 -26s24 -40 24 -68v-127c0 -29.333 -7.83301 -52.666 -23.5 -69.999s-36.5 -26 -62.5 -26h-168c-25.333 0 -46 9 -62 27s-24 41 -24 69v127c0 29.333 7.83301 52.333 23.5 69s36.5 25 62.5 25z" />
    <glyph glyph-name="slash" unicode="/" 
d="M1040 1106l-665 -1141c-10.667 -16.667 -22.5 -29 -35.5 -37s-27.833 -12 -44.5 -12c-24.667 0 -45.167 7.83301 -61.5 23.5s-24.5 35.834 -24.5 60.501c0 8 1.33301 16.5 4 25.5s6.66699 17.5 12 25.5l666 1141c10 16.667 21.667 29 35 37s28.333 12 45 12
c23.333 0 43.5 -8.16699 60.5 -24.5s25.5 -36.833 25.5 -61.5c0 -7.33301 -1.5 -15.333 -4.5 -24s-7.16699 -17 -12.5 -25z" />
    <glyph glyph-name="zero" unicode="0" 
d="M381 1069v-983h504v983h-504zM399 1241h467c61.333 0 108.5 -16.333 141.5 -49s49.5 -79.667 49.5 -141v-947c0 -61.333 -16.5 -108.333 -49.5 -141s-80.167 -49 -141.5 -49h-467c-61.333 0 -108.333 16.333 -141 49s-49 79.667 -49 141v947
c0 61.333 16.333 108.333 49 141s79.667 49 141 49z" />
    <glyph glyph-name="one" unicode="1" 
d="M305 1241h414v-1155h166v338c0 29.333 7.83301 52.333 23.5 69s36.5 25 62.5 25c25.333 0 46 -8.66699 62 -26s24 -40 24 -68v-424c0 -25.333 -9 -46 -27 -62s-41 -24 -69 -24h-656c-28.667 0 -51.834 8 -69.501 24s-26.5 36.667 -26.5 62s9 46 27 62s41 24 69 24h242
v983h-242c-29.333 0 -52.666 7.83301 -69.999 23.5s-26 36.5 -26 62.5c0 25.333 9 46 27 62s41 24 69 24z" />
    <glyph glyph-name="two" unicode="2" 
d="M305 1241h579.998c47.333 0 87.833 -16.667 121.5 -50s50.5 -74 50.5 -122v-405c0 -48 -16.833 -88.667 -50.5 -122s-74.167 -50 -121.5 -50h-504v-406h580c28.667 0 51.834 -8 69.501 -24s26.5 -36.667 26.5 -62s-9 -46 -27 -62s-41 -24 -69 -24h-752v578
c0 47.333 16.667 87.833 50 121.5s74 50.5 122 50.5h504v405h-580c-29.333 0 -52.666 7.83301 -69.999 23.5s-26 36.5 -26 62.5c0 25.333 9 46 27 62s41 24 69 24z" />
    <glyph glyph-name="three" unicode="3" 
d="M305 1241h580c46.667 0 87 -16.833 121 -50.5s51 -74.167 51 -121.5v-319c0 -30 -5.33301 -59 -16 -87s-26.667 -55.667 -48 -83c21.333 -29.333 37.333 -58.833 48 -88.5s16 -59.167 16 -88.5v-317c0 -47.333 -16.833 -87.833 -50.5 -121.5s-74.167 -50.5 -121.5 -50.5
h-580c-28.667 0 -51.834 8 -69.501 24s-26.5 36.667 -26.5 62s9 46 27 62s41 24 69 24h578v320c0 22.667 -8.5 42.667 -25.5 60s-37.167 26 -60.5 26h-324c-29.333 0 -52.333 7.66699 -69 23s-25 36.333 -25 63c0 24.667 8.66699 45.167 26 61.5s40 24.5 68 24.5h324
c23.333 0 43.5 8.5 60.5 25.5s25.5 37.167 25.5 60.5v319h-578c-29.333 0 -52.666 7.83301 -69.999 23.5s-26 36.5 -26 62.5c0 25.333 9 46 27 62s41 24 69 24z" />
    <glyph glyph-name="four" unicode="4" 
d="M424 1145v-626.997h334v483c0 29.333 7.83301 52.833 23.5 70.5s36.5 26.5 62.5 26.5c24.667 0 45.167 -9 61.5 -27s24.5 -41.333 24.5 -70v-483c24.667 -2 45.167 -11 61.5 -27s24.5 -35.667 24.5 -59c0 -22.667 -7.83301 -41.834 -23.5 -57.501
s-36.5 -25.167 -62.5 -28.5v-336c0 -28.667 -8 -51.834 -24 -69.501s-36.667 -26.5 -62 -26.5s-46 9 -62 27s-24 41 -24 69v336h-506v799c0 29.333 7.83301 52.666 23.5 69.999s36.5 26 62.5 26c24.667 0 45.167 -9 61.5 -27s24.5 -41 24.5 -69z" />
    <glyph glyph-name="five" unicode="5" 
d="M379 1241l581.997 0.00195312c28.667 0 51.834 -8 69.501 -24s26.5 -36.667 26.5 -62c0 -24.667 -9 -45.167 -27 -61.5s-41 -24.5 -69 -24.5h-410v-405h334c46.667 0 87 -17 121 -51s51 -74.333 51 -121v-406c0 -47.333 -16.833 -87.833 -50.5 -121.5
s-74.167 -50.5 -121.5 -50.5h-381c-15.333 0 -31.5 1.83301 -48.5 5.5s-33.5 8.5 -49.5 14.5l-136 56c-19.333 8 -34.333 19.167 -45 33.5s-16 31.166 -16 50.499c0 23.333 8.16699 43.166 24.5 59.499s36.833 24.5 61.5 24.5c6 0 12.5 -0.833008 19.5 -2.5
s14.5 -4.16699 22.5 -7.5l134 -54c6.66699 -3.33301 12.334 -5.5 17.001 -6.5s9.33398 -1.5 14.001 -1.5h383v406h-506v749z" />
    <glyph glyph-name="six" unicode="6" 
d="M381 346v-260h504v260h-504zM295 1241l75.999 0.00195312c28.667 0 51.834 -8 69.501 -24s26.5 -36.667 26.5 -62c0 -22.667 -7.83301 -41.834 -23.5 -57.501s-36.5 -25.167 -62.5 -28.5v-551h485c61.333 0 108.5 -16.333 141.5 -49s49.5 -79.667 49.5 -141v-224
c0 -61.333 -16.5 -108.333 -49.5 -141s-80.167 -49 -141.5 -49h-467c-61.333 0 -108.333 16.333 -141 49s-49 79.667 -49 141v1041c0 29.333 7.83301 52.666 23.5 69.999s36.5 26 62.5 26z" />
    <glyph glyph-name="seven" unicode="7" 
d="M295 1241l762 0.00292969v-514c0 -18 -2.33301 -32.333 -7 -43s-16.667 -24.334 -36 -41.001l-295 -252v-381c0 -28.667 -8 -51.834 -24 -69.501s-36.667 -26.5 -62 -26.5s-46 9 -62 27s-24 41 -24 69v414c0 18 2.33301 32.333 7 43s16.667 24.334 36 41.001l295 250v311
h-504c-6 -22.667 -16.5 -40.334 -31.5 -53.001s-33.167 -19 -54.5 -19c-25.333 0 -46 8.83301 -62 26.5s-24 40.5 -24 68.5v53c0 29.333 7.83301 52.666 23.5 69.999s36.5 26 62.5 26z" />
    <glyph glyph-name="eight" unicode="8" 
d="M381 492v-406h504v406h-504zM551 1069v-405h164v405h-164zM465 1241l336 -0.00195312c24.667 0 45.167 -9 61.5 -27s24.5 -41 24.5 -69v-481c55.333 -5.33301 97.5 -24.166 126.5 -56.499s43.5 -77.166 43.5 -134.499v-369c0 -61.333 -16.5 -108.333 -49.5 -141
s-80.167 -49 -141.5 -49h-467c-61.333 0 -108.333 16.333 -141 49s-49 79.667 -49 141v369c0 57.333 14.5 102.333 43.5 135s71.167 51.334 126.5 56.001v481c0 29.333 7.83301 52.666 23.5 69.999s36.5 26 62.5 26z" />
    <glyph glyph-name="nine" unicode="9" 
d="M381 1069v-260h504v260h-504zM399 1241h467.001c61.333 0 108.5 -16.667 141.5 -50s49.5 -80.666 49.5 -141.999v-1041c0 -28.667 -8 -51.5 -24 -68.5s-36.667 -25.5 -62 -25.5h-76c-28.667 0 -51.834 8 -69.501 24s-26.5 36.667 -26.5 62
c0 22.667 7.66699 41.834 23 57.501s36.333 25.5 63 29.5v548h-486c-60.667 0 -107.5 16.667 -140.5 50s-49.5 80.666 -49.5 141.999v222c0 61.333 16.5 108.666 49.5 141.999s79.833 50 140.5 50z" />
    <glyph glyph-name="colon" unicode=":" 
d="M549 446l168 -0.000976562c25.333 0 46 -8.66699 62 -26s24 -40 24 -68v-127c0 -29.333 -7.83301 -52.666 -23.5 -69.999s-36.5 -26 -62.5 -26h-168c-25.333 0 -46 9 -62 27s-24 41 -24 69v127c0 29.333 7.83301 52.333 23.5 69s36.5 25 62.5 25zM549 1024h168
c24.667 0 45.167 -9 61.5 -27s24.5 -41 24.5 -69v-125c0 -29.333 -7.83301 -52.666 -23.5 -69.999s-36.5 -26 -62.5 -26h-168c-25.333 0 -46 9 -62 27s-24 41 -24 69v125c0 29.333 7.83301 52.666 23.5 69.999s36.5 26 62.5 26z" />
    <glyph glyph-name="semicolon" unicode=";" 
d="M473 518l328 0.000976562c25.333 0 46 -8.66699 62 -26s24 -40 24 -68v-414c0 -28.667 -8 -51.834 -24 -69.501s-36.667 -26.5 -62 -26.5s-46 9 -62 27s-24 41 -24 69v336h-242c-29.333 0 -52.333 7.83301 -69 23.5s-25 36.5 -25 62.5c0 25.333 8.66699 46 26 62
s40 24 68 24zM549 1024h168c24.667 0 45.167 -9 61.5 -27s24.5 -41 24.5 -69v-125c0 -29.333 -7.83301 -52.666 -23.5 -69.999s-36.5 -26 -62.5 -26h-168c-25.333 0 -46 9 -62 27s-24 41 -24 69v125c0 29.333 7.83301 52.666 23.5 69.999s36.5 26 62.5 26z" />
    <glyph glyph-name="less" unicode="&#x3c;" 
d="M919 76l-659 386.999c-16 10 -28.5 22 -37.5 36s-13.5 28.667 -13.5 44v69c0 16 4.5 31.167 13.5 45.5s21.5 25.833 37.5 34.5l659 387c12 6.66699 21.667 11.167 29 13.5s14.333 3.5 21 3.5c24 0 44.667 -8.16699 62 -24.5s26 -36.166 26 -59.499
c0 -16 -4.5 -31.167 -13.5 -45.5s-21.5 -25.833 -37.5 -34.5l-607 -352l607 -357c16 -10 28.5 -22 37.5 -36s13.5 -28.667 13.5 -44c0 -24 -8.5 -44 -25.5 -60s-37.833 -24 -62.5 -24c-6.66699 0 -13.667 1.16699 -21 3.5s-17 6.83301 -29 13.5z" />
    <glyph glyph-name="equal" unicode="=" 
d="M305 881h655.999c28 0 51 -8.33301 69 -25s27 -37.667 27 -63s-9 -46 -27 -62s-41 -24 -69 -24h-656c-29.333 0 -52.666 7.83301 -69.999 23.5s-26 36.5 -26 62.5c0 25.333 9 46.333 27 63s41 25 69 25zM304.999 518h655.998c28.667 0 51.834 -8 69.501 -24
s26.5 -36.667 26.5 -62c0 -24.667 -9 -45.167 -27 -61.5s-41 -24.5 -69 -24.5h-656c-29.333 0 -52.666 7.83301 -69.999 23.5s-26 36.5 -26 62.5c0 25.333 9 46 27 62s41 24 69 24z" />
    <glyph glyph-name="greater" unicode="&#x3e;" 
d="M346 1079l660.003 -386.998c16 -8.66699 28.5 -20.167 37.5 -34.5s13.5 -29.5 13.5 -45.5v-69c0 -16 -4.5 -31.167 -13.5 -45.5s-21.5 -25.833 -37.5 -34.5l-660 -387c-10.667 -6 -19.834 -10.333 -27.501 -13s-14.834 -4 -21.501 -4c-24.667 0 -45.5 8.16699 -62.5 24.5
s-25.5 36.166 -25.5 59.499c0 16 4.5 31.167 13.5 45.5s21.5 25.833 37.5 34.5l606 352l-606 357c-16.667 10.667 -29.334 22.667 -38.001 36s-13 28 -13 44c0 23.333 8.5 43.166 25.5 59.499s37.833 24.5 62.5 24.5c6.66699 0 14 -1.33301 22 -4s17 -7 27 -13z" />
    <glyph glyph-name="question" unicode="?" 
d="M463 86c24 0 44.334 -8.33301 61.001 -25s25 -37 25 -61s-8.5 -44.333 -25.5 -61s-37.167 -25 -60.5 -25c-22.667 0 -42.334 8.66699 -59.001 26s-25 37.333 -25 60c0 23.333 8 43.5 24 60.5s36 25.5 60 25.5zM897.001 1190l88.002 -76.001l1 -1
c47.333 -40.667 71 -78 71 -112v-124c0 -18.667 -2.5 -33.667 -7.5 -45s-16.833 -25 -35.5 -41l-463 -396v-96c0 -28.667 -8 -51.834 -24 -69.501s-36.667 -26.5 -62 -26.5s-46 9 -62 27s-24 41 -24 69v125c0 18 2.33301 32.333 7 43s16.667 24.334 36 41.001l463 395v72
l-82 67l-445 -378c-11.333 -10 -22.5 -17 -33.5 -21s-22.833 -6 -35.5 -6c-20.667 0 -39.167 8.16699 -55.5 24.5s-24.5 35.5 -24.5 57.5c0 14 3.16699 27.333 9.5 40s15.5 24 27.5 34l493 421c11.333 10.667 21.666 17.834 30.999 21.501s19.666 5.5 30.999 5.5
c12.667 0 25.167 -3 37.5 -9s31.833 -20 58.5 -42z" />
    <glyph glyph-name="at" unicode="@" 
d="M209 170l-0.000976562 309.003c0 70.667 25.167 131 75.5 181s110.5 75 180.5 75h168c24.667 0 45.167 -9 61.5 -27s24.5 -41 24.5 -69v-469c0 -24.667 7.83301 -44.834 23.5 -60.501s35.167 -23.5 58.5 -23.5c22.667 0 42.334 8.16699 59.001 24.5s25 36.166 25 59.499
v770c0 36 -12.667 66.5 -38 91.5s-55.666 37.5 -90.999 37.5h-256c-24.667 0 -46.334 -5.5 -65.001 -16.5s-34.667 -28.167 -48 -51.5c-1.33301 -2 -3 -5 -5 -9c-24 -44 -53 -66 -87 -66c-22.667 0 -42.667 8.33301 -60 25s-26 36.334 -26 59.001
c0 51.333 29.833 102.666 89.5 153.999s126.834 77 201.501 77h254c83.333 0 154.666 -29.333 213.999 -88s89 -129.667 89 -213v-770c0 -70 -25.167 -130.167 -75.5 -180.5s-110.5 -75.5 -180.5 -75.5c-29.333 0 -57.833 5.16699 -85.5 15.5s-56.5 27.166 -86.5 50.499
c-28 -24 -54.667 -41 -80 -51s-53.333 -15 -84 -15c-70 0 -130.167 25 -180.5 75s-75.5 110.333 -75.5 181zM546.999 170.003v393.001h-82c-22.667 0 -42.334 -8.33301 -59.001 -25s-25 -36.334 -25 -59.001v-309c0 -23.333 8.33301 -43.166 25 -59.499
s36.334 -24.5 59.001 -24.5s42 8.16699 58 24.5s24 36.166 24 59.499z" />
    <glyph glyph-name="A" unicode="A" 
d="M633 848l-139 -473h276zM725 1145l324.001 -1113c2 -6 3.5 -12 4.5 -18s1.5 -11.333 1.5 -16c0 -23.333 -8.33301 -43.166 -25 -59.499s-36.334 -24.5 -59.001 -24.5c-20 0 -37.833 6.5 -53.5 19.5s-26.5 30.167 -32.5 51.5l-64 218h-375l-65 -217
c-8 -24.667 -19.167 -42.834 -33.5 -54.501s-32.5 -17.5 -54.5 -17.5s-41.167 8.16699 -57.5 24.5s-24.5 35.5 -24.5 57.5c0 10 0.333008 17.5 1 22.5s1.66699 9.83301 3 14.5l324 1112c10 36 22.167 61 36.5 75s33.5 21 57.5 21c23.333 0 42 -6.66699 56 -20
s26 -38.666 36 -75.999z" />
    <glyph glyph-name="B" unicode="B" 
d="M381 492l-0.000976562 -406h330c48 0 89 16.833 123 50.5s51 74.167 51 121.5v61c0 47.333 -17.167 88 -51.5 122s-75.166 51 -122.499 51h-330zM380.999 1069l-0.000976562 -405h330c48 0 89 16.833 123 50.5s51 74.167 51 121.5v61c0 46.667 -17.167 87 -51.5 121
s-75.166 51 -122.499 51h-330zM208.998 1241l502 0.000976562c94 0 175.167 -34 243.5 -102s102.5 -148.667 102.5 -242v-59c0 -50.667 -10.833 -99.834 -32.5 -147.501s-50.5 -85.167 -86.5 -112.5c38 -35.333 67.333 -75.333 88 -120s31 -91 31 -139v-59
c0 -94.667 -34 -176 -102 -244s-149.333 -102 -244 -102h-502v1327z" />
    <glyph glyph-name="C" unicode="C" 
d="M657 -86c-53.333 0 -99.502 13.001 -138.502 39.001s-72.5 67 -100.5 123l-178 354c-10.667 20.667 -18.5 43 -23.5 67s-7.5 50 -7.5 78c0 29.333 2.5 56.666 7.5 81.999s12.833 48 23.5 68l178 354c26.667 55.333 59.667 96.166 99 122.499s86 39.5 140 39.5h304
c28.667 0 51.834 -8 69.501 -24s26.5 -36.667 26.5 -62c0 -24.667 -9 -45.167 -27 -61.5s-41 -24.5 -69 -24.5h-304c-16.667 0 -32.334 -4.66699 -47.001 -14s-26.334 -22.333 -35.001 -39l-176 -357c-5.33301 -12 -9.33301 -24.667 -12 -38s-4 -27.666 -4 -42.999
c0 -16 1.33301 -30.667 4 -44s6.66699 -26 12 -38l176 -355c8.66699 -16.667 20.334 -30 35.001 -40s30.334 -15 47.001 -15h304c28.667 0 51.834 -8 69.501 -24s26.5 -36.667 26.5 -62s-9 -46 -27 -62s-41 -24 -69 -24h-304z" />
    <glyph glyph-name="D" unicode="D" 
d="M608 1069l-56.998 0.000976562v-983h57c17.333 0 33.333 4.66699 48 14s26 22.333 34 39l176 357c6 12 10.333 24.667 13 38s4 28 4 44c0 15.333 -1.33301 29.666 -4 42.999s-7 26 -13 38l-176 355c-8.66699 16.667 -20.334 30 -35.001 40s-30.334 15 -47.001 15z
M608.002 1241c54 0 100.334 -12.999 139.001 -38.999s72.334 -67 101.001 -123l178 -354c10 -20.667 17.667 -43.167 23 -67.5s8 -50.833 8 -79.5s-2.66699 -55.334 -8 -80.001s-13 -47.334 -23 -68.001l-178 -354c-27.333 -55.333 -60.5 -96.166 -99.5 -122.499
s-85.833 -39.5 -140.5 -39.5h-303c-28.667 0 -51.834 8 -69.501 24s-26.5 36.667 -26.5 62s9 46 27 62s41 24 69 24h74v983h-74c-28.667 0 -51.834 8 -69.501 24s-26.5 36.667 -26.5 62s9 46 27 62s41 24 69 24h303z" />
    <glyph glyph-name="E" unicode="E" 
d="M209 1241h751.998c28.667 0 51.834 -8 69.501 -24s26.5 -36.667 26.5 -62c0 -24.667 -9 -45.167 -27 -61.5s-41 -24.5 -69 -24.5h-580v-405h244c28 0 50.667 -8 68 -24s26 -36.667 26 -62s-8.66699 -46 -26 -62s-40 -24 -68 -24h-244v-406h580
c28.667 0 51.834 -8 69.501 -24s26.5 -36.667 26.5 -62s-9 -46 -27 -62s-41 -24 -69 -24h-752v1327z" />
    <glyph glyph-name="F" unicode="F" 
d="M209 1241l751.999 0.000976562c28.667 0 51.834 -8 69.501 -24s26.5 -36.667 26.5 -62c0 -24.667 -9 -45.167 -27 -61.5s-41 -24.5 -69 -24.5h-580v-262h412c28 0 50.667 -8 68 -24s26 -36.667 26 -62s-8.83301 -46 -26.5 -62s-40.167 -24 -67.5 -24h-412v-625
c0 -28.667 -8 -51.834 -24 -69.501s-36.667 -26.5 -62 -26.5s-46 9 -62 27s-24 41 -24 69v1231z" />
    <glyph glyph-name="G" unicode="G" 
d="M713 1241l247.999 0.00488281c28.667 0 51.834 -8 69.501 -24s26.5 -36.667 26.5 -62c0 -24.667 -9 -45.167 -27 -61.5s-41 -24.5 -69 -24.5h-246c-11.333 0 -23.333 -2.83301 -36 -8.5s-21.334 -11.834 -26.001 -18.501l-221 -286
c-20 -26.667 -33.5 -48.834 -40.5 -66.501s-10.5 -36.5 -10.5 -56.5v-461c0 -23.333 8.66699 -43.5 26 -60.5s37.333 -25.5 60 -25.5h330c22.667 0 42.667 8.5 60 25.5s26 37.167 26 60.5v174h-156c-29.333 0 -52.666 7.83301 -69.999 23.5s-26 36.5 -26 62.5
c0 25.333 9 46 27 62s41 24 69 24h330v-346c0 -70.667 -25.333 -131.334 -76 -182.001s-111.334 -76 -182.001 -76h-330c-72 0 -133.333 25.167 -184 75.5s-76 111.166 -76 182.499v461c0 39.333 6.66699 76.666 20 111.999s39.333 79.333 78 132l199 264
c22 28.667 52.333 52.5 91 71.5s77.334 28.5 116.001 28.5z" />
    <glyph glyph-name="H" unicode="H" 
d="M381 1145v-480.996h504v481c0 29.333 7.83301 52.666 23.5 69.999s36.5 26 62.5 26c24.667 0 45.167 -9 61.5 -27s24.5 -41 24.5 -69v-1135c0 -28.667 -8 -51.834 -24 -69.501s-36.667 -26.5 -62 -26.5s-46 9 -62 27s-24 41 -24 69v482h-504v-482
c0 -28.667 -8 -51.834 -24 -69.501s-36.667 -26.5 -62 -26.5s-46 9 -62 27s-24 41 -24 69v1135c0 29.333 7.83301 52.666 23.5 69.999s36.5 26 62.5 26c24.667 0 45.167 -9 61.5 -27s24.5 -41 24.5 -69z" />
    <glyph glyph-name="I" unicode="I" 
d="M961 1241c28.667 0 51.834 -8 69.501 -24s26.5 -36.667 26.5 -62c0 -24.667 -9 -45.167 -27 -61.5s-41 -24.5 -69 -24.5h-242v-983h242c28.667 0 51.834 -8 69.501 -24s26.5 -36.667 26.5 -62s-9 -46 -27 -62s-41 -24 -69 -24h-656c-28.667 0 -51.834 8 -69.501 24
s-26.5 36.667 -26.5 62s9 46 27 62s41 24 69 24h242v983h-242c-28.667 0 -51.834 8 -69.501 24s-26.5 36.667 -26.5 62s9 46 27 62s41 24 69 24h656z" />
    <glyph glyph-name="J" unicode="J" 
d="M973 1145v-972.997c0 -70.667 -25.667 -131.334 -77 -182.001s-112.333 -76 -183 -76h-160c-72 0 -133.333 25.167 -184 75.5s-76 111.166 -76 182.499v252c0 29.333 7.83301 52.333 23.5 69s36.5 25 62.5 25c25.333 0 46.333 -8.83301 63 -26.5s25 -40.167 25 -67.5
v-252c0 -24 8.5 -44.333 25.5 -61s37.167 -25 60.5 -25h160c22.667 0 43 8.66699 61 26s27 37.333 27 60v973c0 29.333 7.83301 52.666 23.5 69.999s36.5 26 62.5 26c24.667 0 45.167 -9 61.5 -27s24.5 -41 24.5 -69z" />
    <glyph glyph-name="K" unicode="K" 
d="M381 1145v-380.998l526 450c10.667 10 21 17 31 21s21 6 33 6c23.333 0 43.5 -8.16699 60.5 -24.5s25.5 -35.5 25.5 -57.5c0 -14 -3.16699 -27.333 -9.5 -40s-15.5 -24 -27.5 -34l-594 -507l594 -508c11.333 -10.667 20.333 -22.5 27 -35.5s10 -25.833 10 -38.5
c0 -22 -8.5 -41.167 -25.5 -57.5s-37.167 -24.5 -60.5 -24.5c-12 0 -23 2 -33 6s-20.333 11 -31 21l-526 450v-381c0 -28.667 -8 -51.834 -24 -69.501s-36.667 -26.5 -62 -26.5s-46 9 -62 27s-24 41 -24 69v1135c0 29.333 7.83301 52.666 23.5 69.999s36.5 26 62.5 26
c24.667 0 45.167 -9 61.5 -27s24.5 -41 24.5 -69z" />
    <glyph glyph-name="L" unicode="L" 
d="M381 1145l-0.000976562 -1059h580c28.667 0 51.834 -8 69.501 -24s26.5 -36.667 26.5 -62s-9 -46 -27 -62s-41 -24 -69 -24h-752v1231c0 29.333 7.83301 52.666 23.5 69.999s36.5 26 62.5 26c24.667 0 45.167 -9 61.5 -27s24.5 -41 24.5 -69z" />
    <glyph glyph-name="M" unicode="M" 
d="M209 1241l213 0.00292969l211 -299l211 299h213v-1231c0 -28.667 -8 -51.834 -24 -69.501s-36.667 -26.5 -62 -26.5s-46 9 -62 27s-24 41 -24 69v987l-166 -229v-37c0 -28.667 -8 -51.834 -24 -69.501s-36.667 -26.5 -62 -26.5s-46 9 -62 27s-24 41 -24 69v37l-166 229
v-987c0 -28.667 -8 -51.834 -24 -69.501s-36.667 -26.5 -62 -26.5s-46 9 -62 27s-24 41 -24 69v1231z" />
    <glyph glyph-name="N" unicode="N" 
d="M209 1241l227 0.00195312l449 -1022v926c0 29.333 7.83301 52.666 23.5 69.999s36.5 26 62.5 26c24.667 0 45.167 -9 61.5 -27s24.5 -41 24.5 -69v-1231h-228l-448 1018v-922c0 -28.667 -8 -51.834 -24 -69.501s-36.667 -26.5 -62 -26.5s-46 9 -62 27s-24 41 -24 69v1231
z" />
    <glyph glyph-name="O" unicode="O" 
d="M678 1036c-7.33301 12.667 -14.168 21.332 -20.501 25.999s-14.5 7 -24.5 7c-9.33301 0 -18.333 -3 -27 -9s-15.334 -13.667 -20.001 -23l-185 -364c-6 -12 -10.833 -26.667 -14.5 -44s-5.5 -34.333 -5.5 -51c0 -17.333 1.83301 -34.666 5.5 -51.999s8.5 -32 14.5 -44
l187 -363c6.66699 -12.667 13.334 -21.334 20.001 -26.001s15 -7 25 -7c9.33301 0 18.333 2.83301 27 8.5s15.334 13.834 20.001 24.501l184 362c6 12 11 26.833 15 44.5s6 35.167 6 52.5s-2 35 -6 53s-9 32.333 -15 43zM841.998 1096l178 -351.001
c11.333 -22 20.333 -47.667 27 -77s10 -59.333 10 -90c0 -31.333 -3.33301 -61.666 -10 -90.999s-15.667 -55 -27 -77l-178 -351c-28 -52.667 -58 -90 -90 -112s-71.667 -33 -119 -33c-48 0 -88 11 -120 33s-61.667 59.333 -89 112l-178 351
c-12 23.333 -21.167 49.5 -27.5 78.5s-9.5 58.833 -9.5 89.5s3.16699 60.667 9.5 90s15.5 55 27.5 77l178 351c27.333 52.667 57 90 89 112s72 33 120 33c47.333 0 87 -11 119 -33s62 -59.333 90 -112z" />
    <glyph glyph-name="P" unicode="P" 
d="M381 1069v-477h416c23.333 0 43.5 8.66699 60.5 26s25.5 37.333 25.5 60v305c0 22.667 -8.5 42.667 -25.5 60s-37.167 26 -60.5 26h-416zM209 1241l588 0.00195312c70.667 0 131.667 -25.333 183 -76s77 -111.334 77 -182.001v-305c0 -71.333 -25.333 -132.5 -76 -183.5
s-112 -76.5 -184 -76.5h-416v-408c0 -28.667 -8 -51.834 -24 -69.501s-36.667 -26.5 -62 -26.5s-46 9 -62 27s-24 41 -24 69v1231z" />
    <glyph glyph-name="Q" unicode="Q" 
d="M1057 1032l-0.00195312 -485.001c0 -46 -9.83301 -92 -29.5 -138s-44.167 -81.333 -73.5 -106l-133 -115l41 -102h99c28.667 0 51.834 -8 69.501 -24s26.5 -36.667 26.5 -62s-9 -46 -27 -62s-41 -24 -69 -24h-216l-61 156l-115 -95c-22.667 -20 -47 -35.167 -73 -45.5
s-52 -15.5 -78 -15.5c-57.333 0 -106.5 20.5 -147.5 61.5s-61.5 90.167 -61.5 147.5v481c0 46 9.83301 92.333 29.5 139s43.834 82.334 72.501 107.001l391 330c25.333 21.333 49.5 36.833 72.5 46.5s47.5 14.5 73.5 14.5c57.333 0 106.5 -20.5 147.5 -61.5
s61.5 -90.167 61.5 -147.5zM884.998 1032c0 10 -3.66602 18.6689 -10.999 26.002s-16 11 -26 11c-4 0 -8.16699 -1 -12.5 -3s-8.5 -5 -12.5 -9l-391 -330c-14.667 -12.667 -26.834 -30.5 -36.501 -53.5s-14.5 -46.167 -14.5 -69.5v-481c0 -10 3.66699 -18.667 11 -26
s16 -11 26 -11c3.33301 0 7.33301 1.16699 12 3.5s8.66699 5.16602 12 8.49902l174 144l-59 153c-4 10 -6.66699 17.333 -8 22s-2 9 -2 13c0 25.333 8.33301 46.333 25 63s37 25 61 25c18.667 0 35.5 -5.5 50.5 -16.5s26.167 -25.833 33.5 -44.5l37 -99l80 66
c14 12 26 29.667 36 53s15 46.666 15 69.999v485z" />
    <glyph glyph-name="R" unicode="R" 
d="M381 1069v-262h416c23.333 0 43.5 9 60.5 27s25.5 38.333 25.5 61v88c0 22.667 -8.66699 42.667 -26 60s-37.333 26 -60 26h-416zM209 1241l588 0.00195312c70.667 0 131.667 -25.333 183 -76s77 -111.334 77 -182.001v-88c0 -71.333 -25.333 -132.5 -76 -183.5
s-112 -76.5 -184 -76.5h-92l335 -584c6 -10 10.333 -19 13 -27s4 -15.333 4 -22c0 -24 -8.33301 -44.333 -25 -61s-37 -25 -61 -25c-16.667 0 -32 4.33301 -46 13s-25.333 20.667 -34 36l-387 670h-123v-625c0 -28.667 -8 -51.834 -24 -69.501s-36.667 -26.5 -62 -26.5
s-46 9 -62 27s-24 41 -24 69v1231z" />
    <glyph glyph-name="S" unicode="S" 
d="M401 1241h423.999c62 0 116.167 -22.5 162.5 -67.5s69.5 -96.167 69.5 -153.5c0 -28.667 -8 -51.834 -24 -69.501s-36.667 -26.5 -62 -26.5c-24.667 0 -43.667 6.5 -57 19.5s-24.333 40.5 -33 82.5c-2 10.667 -8.66699 20.5 -20 29.5s-23.333 13.5 -36 13.5h-424
c-4.66699 0 -9.16699 -2.16699 -13.5 -6.5s-6.5 -8.83301 -6.5 -13.5c0 -2 0.5 -4.16699 1.5 -6.5s2.5 -5.16602 4.5 -8.49902l617 -792c18 -24 31.333 -47 40 -69s13 -44.333 13 -67c0 -52.667 -18.833 -97.834 -56.5 -135.501s-83.167 -56.5 -136.5 -56.5h-424
c-61.333 0 -115.166 22.667 -161.499 68s-69.5 96.333 -69.5 153c0 28.667 8 51.834 24 69.501s36.667 26.5 62 26.5c24 0 42.667 -6.5 56 -19.5s24.666 -40.5 33.999 -82.5c2 -10.667 8.66699 -20.5 20 -29.5s23 -13.5 35 -13.5h424c6 0 11 2 15 6s6 8.66699 6 14
c0 2 -0.5 4.16699 -1.5 6.5s-2.5 5.16602 -4.5 8.49902l-617 792c-18 24 -31.333 47 -40 69s-13 44.333 -13 67c0 52.667 18.833 97.834 56.5 135.501s82.834 56.5 135.501 56.5z" />
    <glyph glyph-name="T" unicode="T" 
d="M209 1241l848 0.00292969v-221c0 -28.667 -8 -51.834 -24 -69.501s-36.667 -26.5 -62 -26.5s-46 9 -62 27s-24 41 -24 69v49h-166v-1059c0 -28.667 -8 -51.834 -24 -69.501s-36.667 -26.5 -62 -26.5s-46 9 -62 27s-24 41 -24 69v1059h-166v-49
c0 -28.667 -8 -51.834 -24 -69.501s-36.667 -26.5 -62 -26.5s-46 9 -62 27s-24 41 -24 69v221z" />
    <glyph glyph-name="U" unicode="U" 
d="M381 1145l0.000976562 -972.996c0 -24 8.5 -44.333 25.5 -61s37.167 -25 60.5 -25h330c22.667 0 43 8.66699 61 26s27 37.333 27 60v973c0 29.333 7.83301 52.666 23.5 69.999s36.5 26 62.5 26c24.667 0 45.167 -9 61.5 -27s24.5 -41 24.5 -69v-973
c0 -70.667 -25.333 -131.334 -76 -182.001s-111.334 -76 -182.001 -76h-330c-72 0 -133.333 25.167 -184 75.5s-76 111.166 -76 182.499v973c0 29.333 7.83301 52.666 23.5 69.999s36.5 26 62.5 26c24.667 0 45.167 -9 61.5 -27s24.5 -41 24.5 -69z" />
    <glyph glyph-name="V" unicode="V" 
d="M381 1145v-259.998l252 -662l252 662v260c0 28 8 51 24 69s36.667 27 62 27s46 -8.83301 62 -26.5s24 -40.834 24 -69.501v-293l-338 -864c-10.667 -28.667 -22.5 -48.167 -35.5 -58.5s-29.833 -15.5 -50.5 -15.5c-21.333 0 -39 5.66699 -53 17s-25.667 30.333 -35 57
l-336 864v293c0 29.333 7.83301 52.666 23.5 69.999s36.5 26 62.5 26c24.667 0 45.167 -9 61.5 -27s24.5 -41 24.5 -69z" />
    <glyph glyph-name="W" unicode="W" 
d="M381 1145v-978.997l49 -80h72l45 80v547c0 28.667 7.83301 51.5 23.5 68.5s36.5 25.5 62.5 25.5c25.333 0 46 -8.66699 62 -26s24 -40 24 -68v-547l45 -80h72l49 80v979c0 28 8 51 24 69s36.667 27 62 27s46 -8.83301 62 -26.5s24 -40.834 24 -69.501v-993
c0 -10.667 -1.16699 -20.5 -3.5 -29.5s-5.16602 -16.167 -8.49902 -21.5l-64 -113c-14 -25.333 -28.833 -44 -44.5 -56s-32.834 -18 -51.501 -18h-166c-24.667 0 -45.167 8.66699 -61.5 26s-24.5 39.333 -24.5 66v4v-4c0 -26.667 -8.16699 -48.667 -24.5 -66
s-36.833 -26 -61.5 -26h-166c-18.667 0 -35.5 5.83301 -50.5 17.5s-29.5 30.5 -43.5 56.5l-66 112c-4 7.33301 -7 15.166 -9 23.499s-3 17.833 -3 28.5v993c0 29.333 7.83301 52.666 23.5 69.999s36.5 26 62.5 26c24.667 0 45.167 -9 61.5 -27s24.5 -41 24.5 -69z" />
    <glyph glyph-name="X" unicode="X" 
d="M375 1192l257.999 -444.001l258 444c10 16.667 21.667 29 35 37s28.333 12 45 12c23.333 0 43.5 -8.16699 60.5 -24.5s25.5 -36.833 25.5 -61.5c0 -7.33301 -1.5 -15.333 -4.5 -24s-7.16699 -17 -12.5 -25l-309 -528l309 -528c6.66699 -12 11.167 -21.667 13.5 -29
s3.5 -14.333 3.5 -21c0 -24 -8.66699 -44.667 -26 -62s-37.333 -26 -60 -26c-14.667 0 -28.834 4.5 -42.501 13.5s-25.5 21.5 -35.5 37.5l-262 443l-260 -443c-11.333 -17.333 -23.333 -30.166 -36 -38.499s-26.667 -12.5 -42 -12.5c-23.333 0 -43.166 8.33301 -59.499 25
s-24.5 37.667 -24.5 63c0 8 1.16699 16.333 3.5 25s5.83301 16.667 10.5 24l307 524l-304 532c-6.66699 10.667 -11.167 19.667 -13.5 27s-3.5 15 -3.5 23c0 24.667 8.33301 45.167 25 61.5s37 24.5 61 24.5c15.333 0 30.333 -4.33301 45 -13s26.334 -20.667 35.001 -36z
" />
    <glyph glyph-name="Y" unicode="Y" 
d="M381 1145v-106.997l252 -315l252 315v107c0 28 8 51 24 69s36.667 27 62 27s46 -8.83301 62 -26.5s24 -40.834 24 -69.501v-166l-338 -426v-543c0 -28.667 -8 -51.834 -24 -69.501s-36.667 -26.5 -62 -26.5s-46 9 -62 27s-24 41 -24 69v543l-338 426v166
c0 29.333 7.83301 52.666 23.5 69.999s36.5 26 62.5 26c24.667 0 45.167 -9 61.5 -27s24.5 -41 24.5 -69z" />
    <glyph glyph-name="Z" unicode="Z" 
d="M305 1241h751.998v-113l-608 -1042h512c28.667 0 51.834 -8 69.501 -24s26.5 -36.667 26.5 -62s-9 -46 -27 -62s-41 -24 -69 -24h-752v113l612 1042h-516c-29.333 0 -52.666 7.83301 -69.999 23.5s-26 36.5 -26 62.5c0 25.333 9 46 27 62s41 24 69 24z" />
    <glyph glyph-name="bracketleft" unicode="[" 
d="M381 1069v-983h82v983h-82zM305 1241h655.997c28.667 0 51.834 -8 69.501 -24s26.5 -36.667 26.5 -62c0 -24.667 -9 -45.167 -27 -61.5s-41 -24.5 -69 -24.5h-326v-983h326c28.667 0 51.834 -8 69.501 -24s26.5 -36.667 26.5 -62s-9 -46 -27 -62s-41 -24 -69 -24h-656
c-29.333 0 -52.666 7.83301 -69.999 23.5s-26 36.5 -26 62.5v1155c0 25.333 9 46 27 62s41 24 69 24z" />
    <glyph glyph-name="backslash" unicode="\" 
d="M225 1106c-5.33301 8.66699 -9.33301 17.166 -12 25.499s-4 16.166 -4 23.499c0 24.667 8.16699 45.167 24.5 61.5s36.833 24.5 61.5 24.5c16.667 0 31.5 -4 44.5 -12s24.833 -20.333 35.5 -37l665 -1141c5.33301 -8 9.5 -16.667 12.5 -26s4.5 -17.666 4.5 -24.999
c0 -24.667 -8.5 -45.167 -25.5 -61.5s-37.167 -24.5 -60.5 -24.5c-16 0 -30.667 4.33301 -44 13s-25.333 21.334 -36 38.001z" />
    <glyph glyph-name="bracketright" unicode="]" 
d="M803 1069v-983h82v983h-82zM305 1241h655.999c28.667 0 51.834 -8 69.501 -24s26.5 -36.667 26.5 -62v-1155c0 -25.333 -9 -46 -27 -62s-41 -24 -69 -24h-656c-28.667 0 -51.834 8 -69.501 24s-26.5 36.667 -26.5 62s9 46 27 62s41 24 69 24h326v983h-326
c-29.333 0 -52.666 7.83301 -69.999 23.5s-26 36.5 -26 62.5c0 25.333 9 46 27 62s41 24 69 24z" />
    <glyph glyph-name="asciicircum" unicode="^" 
d="M1042 265c5.33301 -10.667 9.16699 -20.167 11.5 -28.5s3.5 -16.166 3.5 -23.499c0 -22 -8.5 -41.167 -25.5 -57.5s-37.167 -24.5 -60.5 -24.5c-16.667 0 -31.667 4.33301 -45 13s-26.333 22.667 -39 42l-254 389l-254 -389c-13.333 -19.333 -26.5 -33.333 -39.5 -42
s-27.833 -13 -44.5 -13c-24 0 -44 8 -60 24s-24 35.333 -24 58c0 9.33301 1 18.166 3 26.499s5 16.5 9 24.5l316 615c13.333 25.333 27.5 43.833 42.5 55.5s32.167 17.5 51.5 17.5c18.667 0 35.5 -5.83301 50.5 -17.5s29.5 -30.167 43.5 -55.5z" />
    <glyph glyph-name="a" unicode="a" 
d="M463 348c-21.333 0 -40.3311 -8.33203 -56.998 -24.999s-25 -36.334 -25 -59.001v-96c0 -22 8.16699 -41.167 24.5 -57.5s36.166 -24.5 59.499 -24.5h229l185 104l-2 76c0 23.333 -8.33301 42.833 -25 58.5s-36.334 23.5 -59.001 23.5h-330zM473.002 881.001h304.999
c69.333 0 128.666 -24 177.999 -72s75.333 -108.667 78 -182l23 -615v-4c0 -26.667 -8.16699 -49 -24.5 -67s-36.166 -27 -59.499 -27c-24 0 -43.667 7.5 -59 22.5s-25 36.167 -29 63.5l-100 -63c-10.667 -6.66699 -23.167 -12.167 -37.5 -16.5s-27.166 -6.5 -38.499 -6.5
h-244c-70.667 0 -131 24.833 -181 74.5s-75 109.5 -75 179.5v96c0 70 25.333 130.167 76 180.5s110.667 75.5 180 75.5h328c14 0 27.167 -1.16699 39.5 -3.5s24.166 -5.83301 35.499 -10.5l-6 121c-1.33301 24.667 -9.66602 44.5 -24.999 59.5s-35 22.5 -59 22.5h-305
c-28.667 0 -51.167 7.66699 -67.5 23s-24.5 36.333 -24.5 63c0 25.333 8.5 46 25.5 62s39.167 24 66.5 24z" />
    <glyph glyph-name="b" unicode="b" 
d="M608 709c-10.667 0 -20.833 -1.99609 -30.5 -5.99609s-19.167 -10.333 -28.5 -19l-146 -117c-6 -5.33301 -11.167 -13.5 -15.5 -24.5s-6.5 -22.5 -6.5 -34.5v-219c0 -13.333 2 -25.333 6 -36s9.66699 -18.667 17 -24l145 -118c10 -8 20 -14.167 30 -18.5
s19.667 -6.5 29 -6.5h133c10 0 19.333 1.66699 28 5s19 9.66602 31 18.999l58 46c6.66699 5.33301 12.5 13.666 17.5 24.999s7.5 22.666 7.5 33.999v367c0 10 -2.5 20.667 -7.5 32s-10.833 19.666 -17.5 24.999l-57 45c-11.333 10 -21.333 16.667 -30 20s-18.667 5 -30 5
h-133zM381.001 1145l0.00195312 -378.999l63 55c22 18.667 47.5 33.334 76.5 44.001s58.167 16 87.5 16h133c30.667 0 60 -5 88 -15s54 -25 78 -45l58 -45c26 -20 47.833 -48 65.5 -84s26.5 -70.667 26.5 -104v-373c0 -36 -8.66699 -72.333 -26 -109s-39.333 -66 -66 -88
l-58 -45c-24.667 -19.333 -50.834 -34 -78.501 -44s-56.834 -15 -87.501 -15h-133c-29.333 0 -58.5 5.16699 -87.5 15.5s-54.5 24.833 -76.5 43.5l-63 56v-19c0 -28.667 -8 -51.834 -24 -69.501s-36.667 -26.5 -62 -26.5s-46 9 -62 27s-24 41 -24 69v1135
c0 29.333 7.83301 52.666 23.5 69.999s36.5 26 62.5 26c24.667 0 45.167 -9 61.5 -27s24.5 -41 24.5 -69z" />
    <glyph glyph-name="c" unicode="c" 
d="M618 881l342.998 -0.000976562c28 0 51 -8.16699 69 -24.5s27 -36.833 27 -61.5c0 -26 -8.5 -46.5 -25.5 -61.5s-40.5 -22.5 -70.5 -22.5h-343c-10 0 -19.667 -2.16699 -29 -6.5s-19.333 -11.166 -30 -20.499l-153 -133c-7.33301 -6 -13.333 -14.333 -18 -25
s-7 -21.334 -7 -32.001v-191c0 -11.333 2.33301 -22.5 7 -33.5s10.334 -19.5 17.001 -25.5l155 -134c12 -9.33301 22.333 -15.666 31 -18.999s17.667 -5 27 -5h343c28.667 0 51.834 -8 69.501 -24s26.5 -36.667 26.5 -62s-9 -46 -27 -62s-41 -24 -69 -24h-343
c-28.667 0 -58.167 5.5 -88.5 16.5s-55.833 25.167 -76.5 42.5l-154 136c-29.333 26 -51.666 55.667 -66.999 89s-23 68.333 -23 105v189c0 36 7.66699 70.833 23 104.5s37.666 63.5 66.999 89.5l154 135c20.667 18 46.167 32.5 76.5 43.5s59.833 16.5 88.5 16.5z" />
    <glyph glyph-name="d" unicode="d" 
d="M522 709c-18 0 -36.6689 -7.66602 -56.002 -22.999c-1.33301 -0.666992 -2.33301 -1.33398 -3 -2.00098l-57 -45c-7.33301 -6 -13.333 -14.333 -18 -25s-7 -21.334 -7 -32.001v-367c0 -11.333 2.33301 -22.666 7 -33.999s10.667 -19.666 18 -24.999l57 -45l2 -2
c20 -15.333 39 -23 57 -23h133c10 0 19.833 2 29.5 6s19.834 10.333 30.501 19l145 118c6.66699 5.33301 12.167 13.666 16.5 24.999s6.5 23 6.5 35v219c0 12 -2.16699 23.5 -6.5 34.5s-9.83301 19.167 -16.5 24.5l-145 117c-10 8.66699 -19.667 15 -29 19
s-19.666 6 -30.999 6h-133zM1057 1145l0.000976562 -1135c0 -28 -8.33301 -51 -25 -69s-37.667 -27 -63 -27c-26 0 -46.833 8.66699 -62.5 26s-23.5 40.666 -23.5 69.999v19l-64 -56c-21.333 -18.667 -46.5 -33.167 -75.5 -43.5s-58.5 -15.5 -88.5 -15.5h-133
c-29.333 0 -57.833 5 -85.5 15s-53.834 24.667 -78.501 44l-59 45c-28 22 -50.333 50.833 -67 86.5s-25 72.5 -25 110.5v373c0 33.333 8.83301 68 26.5 104s39.5 64 65.5 84l59 45c25.333 20 51.5 35 78.5 45s55.5 15 85.5 15h133c30 0 59.5 -5.33301 88.5 -16
s54.167 -25.334 75.5 -44.001l64 -55v379c0 28 8 51 24 69s36.667 27 62 27s46.333 -8.83301 63 -26.5s25 -40.834 25 -69.501z" />
    <glyph glyph-name="e" unicode="e" 
d="M539 711c-8.66699 0 -17.499 -1.83398 -26.499 -5.50098s-18.167 -8.83398 -27.5 -15.501l-73 -61c-9.33301 -7.33301 -16.833 -16.833 -22.5 -28.5s-8.5 -23.5 -8.5 -35.5v-116h504v116c0 12 -2.83301 23.833 -8.5 35.5s-12.834 20.834 -21.501 27.501l-75 62
c-8.66699 6.66699 -17.5 11.834 -26.5 15.501s-17.833 5.5 -26.5 5.5h-188zM537.001 880.999l190 -0.00292969c28.667 0 57.167 -5.16699 85.5 -15.5s54.5 -25.166 78.5 -44.499l74 -59c28 -23.333 50.333 -52.666 67 -87.999s25 -71.666 25 -108.999v-205
c0 -24.667 -9 -45.167 -27 -61.5s-41 -24.5 -69 -24.5h-580v-45c0 -12 2.83301 -23.667 8.5 -35s13.167 -20.666 22.5 -27.999l73 -62c8 -6 16.167 -10.5 24.5 -13.5s18.166 -4.5 29.499 -4.5h422c28.667 0 51.834 -8 69.501 -24s26.5 -36.667 26.5 -62s-9 -46 -27 -62
s-41 -24 -69 -24h-424c-28.667 0 -56.667 5 -84 15s-53.333 24.667 -78 44l-74 62c-28.667 23.333 -51.167 52.333 -67.5 87s-24.5 70.334 -24.5 107.001v336c0 37.333 8.16699 73.666 24.5 108.999s38.833 64.666 67.5 87.999l74 59c24.667 20 50.667 35 78 45
s55.333 15 84 15z" />
    <glyph glyph-name="f" unicode="f" 
d="M719 1241l198.998 0.000976562c28.667 0 51.834 -8 69.501 -24s26.5 -36.667 26.5 -62c0 -24.667 -9 -45.167 -27 -61.5s-41 -24.5 -69 -24.5h-199c-34.667 0 -64.834 -13 -90.501 -39s-38.5 -56 -38.5 -90v-59h160c28.667 0 51.834 -8 69.501 -24s26.5 -36.667 26.5 -62
s-9 -46 -27 -62s-41 -24 -69 -24h-160v-699c0 -28.667 -8 -51.834 -24 -69.501s-36.667 -26.5 -62 -26.5s-46 9 -62 27s-24 41 -24 69v699h-72c-29.333 0 -52.666 7.83301 -69.999 23.5s-26 36.5 -26 62.5c0 24.667 9 45.167 27 61.5s41 24.5 69 24.5h72v59
c0 82.667 29.667 153.5 89 212.5s130 88.5 212 88.5z" />
    <glyph glyph-name="g" unicode="g" 
d="M883 786c0 28.667 7.83203 51.668 23.499 69.001s36.5 26 62.5 26c25.333 0 46.333 -8.83301 63 -26.5s25 -40.5 25 -68.5v-917c0 -36.667 -8.16699 -72.334 -24.5 -107.001s-38.833 -64 -67.5 -88l-76 -61c-24.667 -19.333 -50.667 -34 -78 -44s-55.333 -15 -84 -15
h-336c-28 0 -51 8 -69 24s-27 36.667 -27 62s8.83301 46 26.5 62s40.834 24 69.501 24h334c12.667 0 23 1.33301 31 4s16 7.33398 24 14.001l75 62c8 6.66699 14.5 15.5 19.5 26.5s7.83301 23.167 8.5 36.5v160l-64 -56c-21.333 -18.667 -46.5 -33.167 -75.5 -43.5
s-58.5 -15.5 -88.5 -15.5h-133c-30 0 -58.5 4.83301 -85.5 14.5s-53.167 24.5 -78.5 44.5l-59 45c-26 20.667 -47.833 49 -65.5 85s-26.5 70.667 -26.5 104v375c0 36 8.5 72 25.5 108s39.167 64.667 66.5 86l59 45c25.333 20 51.5 35 78.5 45s55.5 15 85.5 15h133
c30 0 59.5 -5.33301 88.5 -16s54.167 -25.334 75.5 -44.001l64 -55v20zM884.999 287.001v219.003c0 11.333 -2.5 22.666 -7.5 33.999s-10.833 19.666 -17.5 24.999l-145 119c-10 8 -20.167 14.167 -30.5 18.5s-20.166 6.5 -29.499 6.5h-133
c-10.667 0 -20.667 -1.83301 -30 -5.5s-19 -10.167 -29 -19.5l-57 -45c-7.33301 -6 -13.333 -14.5 -18 -25.5s-7 -22.167 -7 -33.5v-367c0 -10.667 2.33301 -21.5 7 -32.5s10.667 -19.167 18 -24.5l56 -45l3 -2c19.333 -15.333 38.333 -23 57 -23h133
c11.333 0 21.666 2 30.999 6s19 10.333 29 19l145 116c6.66699 6 12.5 14.667 17.5 26s7.5 22.666 7.5 33.999z" />
    <glyph glyph-name="h" unicode="h" 
d="M381 1145l-0.000976562 -405.998l125 82c2.66699 2 6 4.33301 10 7c52 35.333 103.333 53 154 53h108c70 0 129.5 -24 178.5 -72s74.833 -108.667 77.5 -182l21 -615v-4c0 -26.667 -8 -49 -24 -67s-35.333 -27 -58 -27c-26 0 -47.167 8.33301 -63.5 25
s-25.166 39 -26.499 67l-21 621c-1.33301 24 -9.83301 43.667 -25.5 59s-35.167 23 -58.5 23h-110c-10 0 -19.167 -1.66699 -27.5 -5s-19.833 -10 -34.5 -20l-225 -152v-522c0 -28.667 -8 -51.834 -24 -69.501s-36.667 -26.5 -62 -26.5s-46 9 -62 27s-24 41 -24 69v1135
c0 29.333 7.83301 52.666 23.5 69.999s36.5 26 62.5 26c24.667 0 45.167 -9 61.5 -27s24.5 -41 24.5 -69z" />
    <glyph glyph-name="i" unicode="i" 
d="M389 881h233.999c28.667 0 51.834 -8 69.501 -24s26.5 -36.667 26.5 -62v-709h158c28 0 50.667 -7.83301 68 -23.5s26 -36.5 26 -62.5c0 -25.333 -8.83301 -46 -26.5 -62s-40.167 -24 -67.5 -24h-488c-28.667 0 -51.834 8 -69.501 24s-26.5 36.667 -26.5 62s9 46 27 62
s41 24 69 24h156v623h-156c-29.333 0 -52.666 7.83301 -69.999 23.5s-26 36.5 -26 62.5c0 24.667 9 45.167 27 61.5s41 24.5 69 24.5zM556.999 1313h83.999c19.333 0 37.166 -8.66699 53.499 -26s24.5 -37.333 24.5 -60v-72c0 -24.667 -9 -45.167 -27 -61.5
s-41 -24.5 -69 -24.5h-66c-29.333 0 -52.666 7.83301 -69.999 23.5s-26 36.5 -26 62.5v72c0 25.333 8.83301 46 26.5 62s40.834 24 69.501 24z" />
    <glyph glyph-name="j" unicode="j" 
d="M557 881l328 -0.000976562c25.333 0 46 -8.83301 62 -26.5s24 -40.5 24 -68.5v-958c0 -70 -25.333 -130.167 -76 -180.5s-110.667 -75.5 -180 -75.5h-168c-66 0 -124.833 24 -176.5 72s-77.5 97.667 -77.5 149c0 22 8.16699 40.167 24.5 54.5s36.166 21.5 59.499 21.5
c30 0 57.667 -20.833 83 -62.5s54.333 -62.5 87 -62.5h170c22 0 41.167 8.33301 57.5 25s24.5 36.334 24.5 59.001v881h-242c-29.333 0 -52.666 7.83301 -69.999 23.5s-26 36.5 -26 62.5c0 24.667 9 45.167 27 61.5s41 24.5 69 24.5zM809 1313h83.999
c19.333 0 37.166 -8.66699 53.499 -26s24.5 -37.333 24.5 -60v-72c0 -24.667 -9 -45.167 -27 -61.5s-41.333 -24.5 -70 -24.5h-65c-29.333 0 -52.666 7.83301 -69.999 23.5s-26 36.5 -26 62.5v72c0 25.333 8.83301 46 26.5 62s40.834 24 69.501 24z" />
    <glyph glyph-name="k" unicode="k" 
d="M381 1145l-0.000976562 -671.998l444 383c12.667 10 23.834 17 33.501 21s19.834 6 30.501 6c23.333 0 43.166 -8.33301 59.499 -25s24.5 -36.334 24.5 -59.001c0 -12.667 -3 -25.167 -9 -37.5s-14.667 -23.833 -26 -34.5l-340 -295l422 -360
c12.667 -10.667 22 -21.667 28 -33s9 -23.666 9 -36.999c0 -24 -8 -44.333 -24 -61s-35.333 -25 -58 -25c-12.667 0 -24.5 2 -35.5 6s-21.833 10.333 -32.5 19l-442 378l-84 -71v-238c0 -28.667 -8 -51.834 -24 -69.501s-36.667 -26.5 -62 -26.5s-46 9 -62 27s-24 41 -24 69
v1135c0 29.333 7.83301 52.666 23.5 69.999s36.5 26 62.5 26c24.667 0 45.167 -9 61.5 -27s24.5 -41 24.5 -69z" />
    <glyph glyph-name="l" unicode="l" 
d="M389 1241h233.999c28.667 0 51.834 -8 69.501 -24s26.5 -36.667 26.5 -62v-1069h158c28 0 50.667 -7.83301 68 -23.5s26 -36.5 26 -62.5c0 -25.333 -8.83301 -46 -26.5 -62s-40.167 -24 -67.5 -24h-488c-28.667 0 -51.834 8 -69.501 24s-26.5 36.667 -26.5 62s9 46 27 62
s41 24 69 24h156v983h-156c-29.333 0 -52.666 7.83301 -69.999 23.5s-26 36.5 -26 62.5c0 25.333 9 46 27 62s41 24 69 24z" />
    <glyph glyph-name="m" unicode="m" 
d="M1053 684l21.9961 -671.997v-4c0 -26.667 -8.16699 -49 -24.5 -67s-36.166 -27 -59.499 -27c-25.333 0 -46 8.33301 -62 25s-24.667 39.334 -26 68.001l-22 669c0 9.33301 -3.16699 17.166 -9.5 23.499s-14.166 9.5 -23.499 9.5c-4 0 -8.16699 -0.833008 -12.5 -2.5
s-7.83301 -3.83398 -10.5 -6.50098l-106 -92v-598c0 -28.667 -8 -51.834 -24 -69.501s-36.667 -26.5 -62 -26.5s-46 9 -62 27s-24 41 -24 69v662c0 9.33301 -4 17.833 -12 25.5s-17 11.5 -27 11.5c-4.66699 0 -9.16699 -1 -13.5 -3s-8.16602 -4.66699 -11.499 -8l-121 -98
v-590c0 -28.667 -7.83301 -51.834 -23.5 -69.501s-36.5 -26.5 -62.5 -26.5c-24.667 0 -45.167 9 -61.5 27s-24.5 41 -24.5 69v776c0 29.333 7.83301 52.5 23.5 69.5s36.5 25.5 62.5 25.5c20 0 36.667 -5.33301 50 -16s24 -26.667 32 -48l29 23
c18.667 14 37.5 24.333 56.5 31s40.5 10 64.5 10c32.667 0 62.834 -6.5 90.501 -19.5s54.167 -33.167 79.5 -60.5l20 16c30.667 24.667 56.334 41.5 77.001 50.5s43 13.5 67 13.5c59.333 0 108.666 -18.667 147.999 -56s60.333 -84.333 63 -141z" />
    <glyph glyph-name="n" unicode="n" 
d="M381 784l0.000976562 -52.998l100 68l6 4c73.333 52 142.333 78 207 78h78c87.333 0 152.666 -26.333 195.999 -79s66.666 -133.334 69.999 -242.001l19 -550v-4c0 -26.667 -8.16699 -48.667 -24.5 -66s-36.833 -26 -61.5 -26c-25.333 0 -45.666 8.5 -60.999 25.5
s-23.666 40.5 -24.999 70.5l-21 556c-2 48 -11.833 83.5 -29.5 106.5s-43.834 34.5 -78.501 34.5h-56c-30.667 0 -68.667 -14.667 -114 -44l-6 -4l-199 -131v-518c0 -28.667 -8 -51.834 -24 -69.501s-36.667 -26.5 -62 -26.5s-46 9 -62 27s-24 41 -24 69v774
c0 29.333 7.83301 52.833 23.5 70.5s36.5 26.5 62.5 26.5c24.667 0 45.167 -9 61.5 -27s24.5 -41.333 24.5 -70z" />
    <glyph glyph-name="o" unicode="o" 
d="M539 711c-8.66699 0 -17.498 -1.83496 -26.498 -5.50195s-18.167 -8.83398 -27.5 -15.501l-73 -61c-9.33301 -7.33301 -16.833 -16.833 -22.5 -28.5s-8.5 -23.5 -8.5 -35.5v-336c0 -12 2.83301 -23.667 8.5 -35s13.167 -20.666 22.5 -27.999l74 -62
c8 -6 16.5 -10.5 25.5 -13.5s18.167 -4.5 27.5 -4.5h188c9.33301 0 18.666 1.66699 27.999 5s18 8 26 14l73 61c8.66699 6.66699 16 16 22 28s9 23.667 9 35v336c0 12 -2.83301 23.833 -8.5 35.5s-12.834 20.834 -21.501 27.501l-75 62
c-8.66699 6.66699 -17.5 11.834 -26.5 15.501s-17.833 5.5 -26.5 5.5h-188zM537.002 880.998l190 -0.000976562c28.667 0 57.167 -5.16699 85.5 -15.5s54.5 -25.166 78.5 -44.499l74 -59c28 -23.333 50.333 -52.666 67 -87.999s25 -71.666 25 -108.999v-336
c0 -36.667 -8.16699 -72.334 -24.5 -107.001s-38.833 -63.667 -67.5 -87l-74 -62c-24 -18.667 -50.167 -33.167 -78.5 -43.5s-56.833 -15.5 -85.5 -15.5h-190c-28.667 0 -56.667 5 -84 15s-53.333 24.667 -78 44l-74 62c-28.667 23.333 -51.167 52.333 -67.5 87
s-24.5 70.334 -24.5 107.001v336c0 37.333 8.16699 73.666 24.5 108.999s38.833 64.666 67.5 87.999l74 59c24.667 20 50.667 35 78 45s55.333 15 84 15z" />
    <glyph glyph-name="p" unicode="p" 
d="M614 743c-10 0 -19.999 -1.99902 -29.999 -5.99902s-19 -10 -27 -18l-154 -152c-7.33301 -7.33301 -12.833 -16 -16.5 -26s-5.5 -21 -5.5 -33v-219c0 -12.667 1.83301 -23.834 5.5 -33.501s9.16699 -18.5 16.5 -26.5l154 -151c8 -8 17.167 -14.5 27.5 -19.5
s20.166 -7.5 29.499 -7.5h39c10 0 20.667 2.33301 32 7s21.333 10.667 30 18l143 121c6.66699 5.33301 12.5 13.833 17.5 25.5s7.5 22.834 7.5 33.501v285c0 10.667 -2.5 22.167 -7.5 34.5s-10.833 21.166 -17.5 26.499l-143 121c-8 6.66699 -17.167 11.667 -27.5 15
s-21.833 5 -34.5 5h-39zM381.001 821.001v-34.999l41 41c30 30.667 61 53.5 93 68.5s65 22.5 99 22.5h45c27.333 0 55.5 -5.66699 84.5 -17s55.5 -27 79.5 -47l142 -119c28 -23.333 50.333 -52.5 67 -87.5s25 -70.5 25 -106.5v-285c0 -36.667 -8.33301 -72.5 -25 -107.5
s-39 -64.167 -67 -87.5l-146 -120c-22 -19.333 -47.5 -34.5 -76.5 -45.5s-58.167 -16.5 -87.5 -16.5h-39c-34.667 0 -68.167 7.5 -100.5 22.5s-63.5 37.5 -93.5 67.5l-41 41v-360c0 -28.667 -8 -51.834 -24 -69.501s-36.667 -26.5 -62 -26.5s-46 9 -62 27s-24 41 -24 69
v1171c0 29.333 7.83301 52.833 23.5 70.5s36.5 26.5 62.5 26.5c24.667 0 45.167 -9.16699 61.5 -27.5s24.5 -41.5 24.5 -69.5z" />
    <glyph glyph-name="q" unicode="q" 
d="M522 709c-9.33301 0 -18.332 -1.66602 -26.999 -4.99902s-19.334 -10 -32.001 -20l-57 -45c-7.33301 -6 -13.333 -14.5 -18 -25.5s-7 -22.167 -7 -33.5v-367c0 -11.333 2.33301 -22.333 7 -33s10.667 -18.667 18 -24l56 -45l6 -4c18 -14 36 -21 54 -21h133
c11.333 0 21.666 2 30.999 6s19 10.333 29 19l145 116c6.66699 5.33301 12.167 13.666 16.5 24.999s6.5 23 6.5 35v219c0 12 -2.16699 23.5 -6.5 34.5s-9.83301 19.167 -16.5 24.5l-145 119c-10 8 -20.167 14.167 -30.5 18.5s-20.166 6.5 -29.499 6.5h-133zM522.001 881.001
l133 0.000976562c30 0 59.5 -5.33301 88.5 -16s54.167 -25.334 75.5 -44.001l64 -55v20c0 29.333 7.83301 52.5 23.5 69.5s36.5 25.5 62.5 25.5c25.333 0 46.333 -8.83301 63 -26.5s25 -40.5 25 -68.5v-1136c0 -28.667 -8.33301 -51.834 -25 -69.501
s-37.667 -26.5 -63 -26.5s-46 9 -62 27s-24 41 -24 69v379l-64 -56c-21.333 -18.667 -46.5 -33.167 -75.5 -43.5s-58.5 -15.5 -88.5 -15.5h-133c-30 0 -58.5 4.83301 -85.5 14.5s-53.167 24.5 -78.5 44.5l-59 45c-26.667 20.667 -48.667 48.834 -66 84.501
s-26 70.5 -26 104.5v375c0 36 8.5 72 25.5 108s39.167 64.667 66.5 86l59 45c25.333 20 51.5 35 78.5 45s55.5 15 85.5 15z" />
    <glyph glyph-name="r" unicode="r" 
d="M381 786l-0.000976562 -89.999l143 125c21.333 18.667 46.833 33.334 76.5 44.001s58.834 16 87.501 16h113c70 0 130.167 -25 180.5 -75s75.5 -109.667 75.5 -179v-39c0 -28.667 -8 -51.834 -24 -69.501s-36.667 -26.5 -62 -26.5s-46 9 -62 27s-24 41 -24 69v39
c0 22 -8.33301 41.5 -25 58.5s-36.334 25.5 -59.001 25.5h-113c-9.33301 0 -20.166 -2.5 -32.499 -7.5s-21.833 -10.833 -28.5 -17.5l-246 -217v-459c0 -28.667 -8 -51.834 -24 -69.501s-36.667 -26.5 -62 -26.5s-46 9 -62 27s-24 41 -24 69v776
c0 29.333 7.83301 52.5 23.5 69.5s36.5 25.5 62.5 25.5c25.333 0 46 -8.83301 62 -26.5s24 -40.5 24 -68.5z" />
    <glyph glyph-name="s" unicode="s" 
d="M449 881l364.002 0.00195312c56 0 107.167 -17.333 153.5 -52s69.5 -70 69.5 -106c0 -24 -8.5 -44.333 -25.5 -61s-37.167 -25 -60.5 -25c-21.333 0 -44.166 12 -68.499 36s-47.833 36 -70.5 36h-362c-14.667 0 -26.667 -4.83301 -36 -14.5s-14 -22.834 -14 -39.501
c0 -7.33301 3 -15 9 -23s13.333 -14 22 -18l465 -198c49.333 -22 88.333 -54.5 117 -97.5s43 -91.167 43 -144.5c0 -71.333 -25.667 -132.5 -77 -183.5s-112.333 -76.5 -183 -76.5h-338c-60 0 -116.333 17.5 -169 52.5s-79 70.167 -79 105.5
c0 22.667 8.16699 42.667 24.5 60s36.166 26 59.499 26c18.667 0 44 -12 76 -36s61.333 -36 88 -36h338c23.333 0 43.833 8.66699 61.5 26s26.5 38 26.5 62c0 18 -5 34.5 -15 49.5s-23.667 25.833 -41 32.5l-462 201c-42.667 18 -76.334 45.333 -101.001 82
s-37 76.667 -37 120c0 61.333 21.667 113.666 65 156.999s95.666 65 156.999 65z" />
    <glyph glyph-name="t" unicode="t" 
d="M551 1075l-0.00195312 -194h326c28.667 0 51.834 -8 69.501 -24s26.5 -36.667 26.5 -62s-9 -46 -27 -62s-41 -24 -69 -24h-326v-541c0 -23.333 7.83301 -42.833 23.5 -58.5s35.167 -23.5 58.5 -23.5h170c18 0 34 5.16699 48 15.5s24.667 25.166 32 44.499
c0.666992 2 2.33398 6.66699 5.00098 14c15.333 47.333 43 71 83 71c23.333 0 43.166 -8.16699 59.499 -24.5s24.5 -35.166 24.5 -56.499c0 -59.333 -25.333 -113.5 -76 -162.5s-110 -73.5 -178 -73.5h-168c-70.667 0 -131 25.167 -181 75.5s-75 110.5 -75 180.5v539h-72
c-29.333 0 -52.666 7.83301 -69.999 23.5s-26 36.5 -26 62.5c0 24.667 9 45.167 27 61.5s41 24.5 69 24.5h72v194c0 29.333 7.83301 52.333 23.5 69s36.5 25 62.5 25c25.333 0 46.333 -8.66699 63 -26s25 -40 25 -68z" />
    <glyph glyph-name="u" unicode="u" 
d="M381 784l20.001 -556c2.66699 -49.333 12.834 -85.333 30.501 -108s43.834 -34 78.501 -34h55c29.333 0 66 14 110 42l11 7l199 129v520c0 29.333 7.83301 52.833 23.5 70.5s36.5 26.5 62.5 26.5c24.667 0 45.167 -9 61.5 -27s24.5 -41.333 24.5 -70v-774
c0 -28.667 -8 -51.834 -24 -69.501s-36.667 -26.5 -62 -26.5s-46 9 -62 27s-24 41 -24 69v53l-101 -69l-1 -1c-74.667 -52.667 -145.334 -79 -212.001 -79h-77c-87.333 0 -152.833 26.333 -196.5 79s-67.167 133.667 -70.5 243l-18 548v4
c0 26.667 8.16699 48.834 24.5 66.501s36.833 26.5 61.5 26.5c25.333 0 45.666 -8.66699 60.999 -26s23.666 -41 24.999 -71z" />
    <glyph glyph-name="v" unicode="v" 
d="M381 786v-111.999l252 -576l252 576v112c0 28 8 50.833 24 68.5s36.667 26.5 62 26.5s46 -8.66699 62 -26s24 -40.333 24 -69v-127c0 -8.66699 -1 -17 -3 -25s-5 -16.333 -9 -25l-271 -621c-12.667 -28.667 -25.667 -48.167 -39 -58.5s-29.666 -15.5 -48.999 -15.5h-106
c-20 0 -36.333 5 -49 15s-25.667 29.667 -39 59l-271 620c-4.66699 10 -7.83398 18.667 -9.50098 26s-2.5 15.666 -2.5 24.999v127c0 29.333 7.83301 52.5 23.5 69.5s36.5 25.5 62.5 25.5c25.333 0 46 -8.83301 62 -26.5s24 -40.5 24 -68.5z" />
    <glyph glyph-name="w" unicode="w" 
d="M365 788l14.002 -488.997l57 -184l111 196v187c0 28 8 50.667 24 68s36.667 26 62 26c24.667 0 45.167 -9 61.5 -27s24.5 -40.333 24.5 -67v-187l108 -196l58 184l16 489c1.33301 28.667 9.83301 51.334 25.5 68.001s36.5 25 62.5 25c24 0 44 -8.83301 60 -26.5
s24 -39.834 24 -66.501v-4l-16 -508l-88 -292c-6.66699 -24.667 -18.5 -42.5 -35.5 -53.5s-40.833 -16.5 -71.5 -16.5h-67c-16 0 -30.167 4.16699 -42.5 12.5s-23.5 21.166 -33.5 38.499l-86 146l-86 -146c-10 -16.667 -21.5 -29.334 -34.5 -38.001s-27.5 -13 -43.5 -13h-66
c-30 0 -53.5 5.5 -70.5 16.5s-28.833 28.833 -35.5 53.5l-88 292l-16 508v4c0 27.333 7.66699 49.666 23 66.999s34.666 26 57.999 26c26.667 0 48.167 -8.5 64.5 -25.5s25.166 -39.5 26.499 -67.5z" />
    <glyph glyph-name="x" unicode="x" 
d="M385 844l249.999 -301l244 301c9.33301 12 20.5 21.167 33.5 27.5s26.167 9.5 39.5 9.5c23.333 0 43.166 -8.33301 59.499 -25s24.5 -36.334 24.5 -59.001c0 -11.333 -2 -22.166 -6 -32.499s-10 -20.833 -18 -31.5l-267 -323l285 -349
c8.66699 -9.33301 15 -18.833 19 -28.5s6 -20.5 6 -32.5c0 -23.333 -8.16699 -43.166 -24.5 -59.499s-36.166 -24.5 -59.499 -24.5c-13.333 0 -26.666 3.33301 -39.999 10s-24.666 15.667 -33.999 27l-264 321l-266 -321c-10.667 -12.667 -22.167 -22 -34.5 -28
s-25.5 -9 -39.5 -9c-24 0 -44 7.83301 -60 23.5s-24 35.167 -24 58.5c0 11.333 2.16699 22.5 6.5 33.5s10.166 20.833 17.499 29.5l289 347l-270 325c-8.66699 10.667 -15 21.5 -19 32.5s-6 23.5 -6 37.5c0 19.333 8.5 37.166 25.5 53.499s35.833 24.5 56.5 24.5
c14.667 0 28.5 -3.16699 41.5 -9.5s24.5 -15.5 34.5 -27.5z" />
    <glyph glyph-name="y" unicode="y" 
d="M381 786v-112.001l225 -514h53l226 514v112c0 28 8 50.833 24 68.5s36.667 26.5 62 26.5s46 -8.66699 62 -26s24 -40.333 24 -69v-127c0 -7.33301 -0.833008 -14.666 -2.5 -21.999s-5.16699 -17 -10.5 -29l-440 -1012c-6 -11.333 -17 -21.166 -33 -29.499
s-33.667 -12.5 -53 -12.5h-215c-28.667 0 -51.5 7.83301 -68.5 23.5s-25.5 36.5 -25.5 62.5c0 24.667 8.66699 45.167 26 61.5s40 24.5 68 24.5h170l113 260h-29c-20 0 -37.667 3.83301 -53 11.5s-25.666 18.167 -30.999 31.5l-252 579
c-4.66699 10 -7.83398 18.667 -9.50098 26s-2.5 15.666 -2.5 24.999v127c0 29.333 7.83301 52.5 23.5 69.5s36.5 25.5 62.5 25.5c25.333 0 46 -8.83301 62 -26.5s24 -40.5 24 -68.5z" />
    <glyph glyph-name="z" unicode="z" 
d="M303 -86c-29.333 0 -52.334 7.83105 -69.001 23.498s-25 36.5 -25 62.5v55c0 22.667 2.5 40.334 7.5 53.001s13.5 24.334 25.5 35.001l55 54l549 526h-500c-28.667 0 -51.834 8 -69.501 24s-26.5 36.667 -26.5 62s9 46 27 62s41 24 69 24h615
c28.667 0 51.834 -7.83301 69.501 -23.5s26.5 -36.5 26.5 -62.5v-68c0 -22 -2.5 -39.333 -7.5 -52s-13.5 -24.667 -25.5 -36l-57 -51l-539 -516h533c28.667 0 51.834 -8 69.501 -24s26.5 -36.667 26.5 -62s-9 -46 -27 -62s-41 -24 -69 -24h-658z" />
    <glyph glyph-name="braceleft" unicode="{" 
d="M719 750c0 -30 -5.33398 -59.167 -16.001 -87.5s-27.334 -56.5 -50.001 -84.5c22.667 -30 39.334 -59.167 50.001 -87.5s16 -57.5 16 -87.5v-317h242c28 0 51 -8 69 -24s27 -36.667 27 -62s-8.83301 -46 -26.5 -62s-40.834 -24 -69.501 -24h-242
c-46.667 0 -87 17 -121 51s-51 74.333 -51 121v320c0 22.667 -8.33301 42.667 -25 60s-37 26 -61 26h-156c-29.333 0 -52.666 7.83301 -69.999 23.5s-26 36.5 -26 62.5c0 24.667 9 45.167 27 61.5s41 24.5 69 24.5h156c23.333 0 43.5 8.5 60.5 25.5s25.5 37.167 25.5 60.5
v319c0 46.667 17 87 51 121s74.333 51 121 51h242c28.667 0 51.834 -8 69.501 -24s26.5 -36.667 26.5 -62c0 -24.667 -9 -45.167 -27 -61.5s-41 -24.5 -69 -24.5h-242v-319z" />
    <glyph glyph-name="bar" unicode="|" 
d="M547 -258v2060h172v-2060h-172z" />
    <glyph glyph-name="braceright" unicode="}" 
d="M305 1069c-28 0 -50.999 8.16504 -68.999 24.498s-27 36.833 -27 61.5c0 25.333 8.83301 46 26.5 62s40.834 24 69.501 24h242c46.667 0 87 -17 121 -51s51 -74.333 51 -121v-319c0 -23.333 8.33301 -43.5 25 -60.5s37 -25.5 61 -25.5h156c28 0 51 -8.16699 69 -24.5
s27 -36.833 27 -61.5c0 -26 -8.83301 -46.833 -26.5 -62.5s-40.834 -23.5 -69.501 -23.5h-156c-23.333 0 -43.5 -8.66699 -60.5 -26s-25.5 -37.333 -25.5 -60v-320c0 -46.667 -17 -87 -51 -121s-74.333 -51 -121 -51h-242c-28.667 0 -51.834 8 -69.501 24
s-26.5 36.667 -26.5 62s9 46 27 62s41 24 69 24h242v317c0 30.667 5.33301 60.334 16 89.001s27 57.334 49 86.001c-22 28 -38.333 56.167 -49 84.5s-16 57.5 -16 87.5v319h-242z" />
    <glyph glyph-name="Euro" 
d="M193 319c-31.333 0 -55.3369 6.66602 -72.0039 19.999s-25 32 -25 56s8.66699 42.667 26 56s41 20 71 20h108c-4.66699 14 -8.16699 29.667 -10.5 47s-3.5 36.333 -3.5 57c0 21.333 1.16699 41 3.5 59s5.83301 34.667 10.5 50h-96c-31.333 0 -55.166 6.5 -71.499 19.5
s-24.5 31.833 -24.5 56.5c0 23.333 8.5 41.833 25.5 55.5s40.5 20.5 70.5 20.5h168l123 243c28 56 61.333 97 100 123s85 39 139 39h303c28.667 0 52 -8 70 -24s27 -36.667 27 -62c0 -24.667 -9 -45.167 -27 -61.5s-41.333 -24.5 -70 -24.5h-303
c-17.333 0 -33.166 -4.66699 -47.499 -14s-25.833 -22.333 -34.5 -39l-88 -180h340c30 0 53.167 -6.66699 69.5 -20s24.5 -32 24.5 -56c0 -24.667 -8 -43.5 -24 -56.5s-39.333 -19.5 -70 -19.5h-416l-12 -25c-5.33301 -12 -9.33301 -24.667 -12 -38s-4 -27.666 -4 -42.999
c0 -16 1.33301 -30.667 4 -44s6.66699 -26 12 -38l12 -25h308c29.333 0 52.333 -6.66699 69 -20s25 -32 25 -56c0 -24.667 -8 -43.5 -24 -56.5s-39.333 -19.5 -70 -19.5h-232l88 -178c8.66699 -16.667 20.334 -30 35.001 -40s30.334 -15 47.001 -15h303
c28.667 0 52 -8 70 -24s27 -36.667 27 -62s-9 -46 -27 -62s-41.333 -24 -70 -24h-303c-54 0 -100.333 13 -139 39s-72 67 -100 123l-123 243h-180z" />
    <glyph glyph-name="Euro" unicode="&#x20ac;" 
d="M193 319c-31.333 0 -55.3369 6.66602 -72.0039 19.999s-25 32 -25 56s8.66699 42.667 26 56s41 20 71 20h108c-4.66699 14 -8.16699 29.667 -10.5 47s-3.5 36.333 -3.5 57c0 21.333 1.16699 41 3.5 59s5.83301 34.667 10.5 50h-96c-31.333 0 -55.166 6.5 -71.499 19.5
s-24.5 31.833 -24.5 56.5c0 23.333 8.5 41.833 25.5 55.5s40.5 20.5 70.5 20.5h168l123 243c28 56 61.333 97 100 123s85 39 139 39h303c28.667 0 52 -8 70 -24s27 -36.667 27 -62c0 -24.667 -9 -45.167 -27 -61.5s-41.333 -24.5 -70 -24.5h-303
c-17.333 0 -33.166 -4.66699 -47.499 -14s-25.833 -22.333 -34.5 -39l-88 -180h340c30 0 53.167 -6.66699 69.5 -20s24.5 -32 24.5 -56c0 -24.667 -8 -43.5 -24 -56.5s-39.333 -19.5 -70 -19.5h-416l-12 -25c-5.33301 -12 -9.33301 -24.667 -12 -38s-4 -27.666 -4 -42.999
c0 -16 1.33301 -30.667 4 -44s6.66699 -26 12 -38l12 -25h308c29.333 0 52.333 -6.66699 69 -20s25 -32 25 -56c0 -24.667 -8 -43.5 -24 -56.5s-39.333 -19.5 -70 -19.5h-232l88 -178c8.66699 -16.667 20.334 -30 35.001 -40s30.334 -15 47.001 -15h303
c28.667 0 52 -8 70 -24s27 -36.667 27 -62s-9 -46 -27 -62s-41.333 -24 -70 -24h-303c-54 0 -100.333 13 -139 39s-72 67 -100 123l-123 243h-180z" />
    <glyph glyph-name="nonbreakingspace" unicode="&#xa0;" 
 />
    <glyph glyph-name="exclamdown" unicode="&#xa1;" 
d="M1057 731c0 -28.667 -8 -51.5 -24 -68.5s-36.667 -25.5 -62 -25.5s-46 8.66699 -62 26s-24 40 -24 68v338h-166v-1155h-510v510c0 29.333 7.83301 52.333 23.5 69s36.5 25 62.5 25c25.333 0 46 -8.66699 62 -26s24 -40 24 -68v-338h166v1155h510v-510z" />
    <glyph glyph-name="sterling" unicode="&#xa3;" 
d="M932 1241h28.999c28.667 0 51.834 -8 69.501 -24s26.5 -36.667 26.5 -62c0 -24.667 -9 -45.167 -27 -61.5s-41 -24.5 -69 -24.5h-29c-20.667 0 -38.5 -6.5 -53.5 -19.5s-25.833 -31.833 -32.5 -56.5l-98 -329h213c28.667 0 51.834 -8 69.501 -24s26.5 -36.667 26.5 -62
s-9 -46 -27 -62s-41 -24 -69 -24h-263l-116 -406h379c28.667 0 51.834 -8 69.501 -24s26.5 -36.667 26.5 -62s-9 -46 -27 -62s-41 -24 -69 -24h-656c-28.667 0 -51.834 8 -69.501 24s-26.5 36.667 -26.5 62s9 46 27 62s41 24 69 24h94l119 406h-213
c-29.333 0 -52.666 7.83301 -69.999 23.5s-26 36.5 -26 62.5c0 24.667 9 45.167 27 61.5s41 24.5 69 24.5h264l103 358c19.333 70 51.666 124 96.999 162s99.666 57 162.999 57z" />
    <glyph glyph-name="currency" unicode="&#xa4;" 
d="M193 319c-31.333 0 -55.3369 6.66602 -72.0039 19.999s-25 32 -25 56s8.66699 42.667 26 56s41 20 71 20h108c-4.66699 14 -8.16699 29.667 -10.5 47s-3.5 36.333 -3.5 57c0 21.333 1.16699 41 3.5 59s5.83301 34.667 10.5 50h-96c-31.333 0 -55.166 6.5 -71.499 19.5
s-24.5 31.833 -24.5 56.5c0 23.333 8.5 41.833 25.5 55.5s40.5 20.5 70.5 20.5h168l123 243c28 56 61.333 97 100 123s85 39 139 39h303c28.667 0 52 -8 70 -24s27 -36.667 27 -62c0 -24.667 -9 -45.167 -27 -61.5s-41.333 -24.5 -70 -24.5h-303
c-17.333 0 -33.166 -4.66699 -47.499 -14s-25.833 -22.333 -34.5 -39l-88 -180h340c30 0 53.167 -6.66699 69.5 -20s24.5 -32 24.5 -56c0 -24.667 -8 -43.5 -24 -56.5s-39.333 -19.5 -70 -19.5h-416l-12 -25c-5.33301 -12 -9.33301 -24.667 -12 -38s-4 -27.666 -4 -42.999
c0 -16 1.33301 -30.667 4 -44s6.66699 -26 12 -38l12 -25h308c29.333 0 52.333 -6.66699 69 -20s25 -32 25 -56c0 -24.667 -8 -43.5 -24 -56.5s-39.333 -19.5 -70 -19.5h-232l88 -178c8.66699 -16.667 20.334 -30 35.001 -40s30.334 -15 47.001 -15h303
c28.667 0 52 -8 70 -24s27 -36.667 27 -62s-9 -46 -27 -62s-41.333 -24 -70 -24h-303c-54 0 -100.333 13 -139 39s-72 67 -100 123l-123 243h-180z" />
    <glyph glyph-name="yen" unicode="&#xa5;" 
d="M375 1190l258.001 -442l258 442c8.66699 16 20.167 28.5 34.5 37.5s29.5 13.5 45.5 13.5c24 0 44.333 -8.33301 61 -25s25 -37 25 -61c0 -7.33301 -1.33301 -15.166 -4 -23.499s-7 -17.833 -13 -28.5l-321 -550v-35h244c27.333 0 49.833 -8 67.5 -24
s26.5 -36.667 26.5 -62c0 -26 -8.5 -46.833 -25.5 -62.5s-39.833 -23.5 -68.5 -23.5h-244v-336c0 -28.667 -8 -51.834 -24 -69.501s-36.667 -26.5 -62 -26.5s-46 9 -62 27s-24 41 -24 69v336h-242c-29.333 0 -52.666 7.83301 -69.999 23.5s-26 36.5 -26 62.5
c0 25.333 9 46 27 62s41 24 69 24h242v35l-322 551c-5.33301 10 -9.33301 19.167 -12 27.5s-4 16.166 -4 23.499c0 24.667 8.16699 45.167 24.5 61.5s36.833 24.5 61.5 24.5c15.333 0 30.166 -4.66699 44.499 -14s26.166 -21.666 35.499 -36.999z" />
    <glyph glyph-name="twosuperior" unicode="&#xb2;" 
d="M887 424v-413.999c0 -28.667 -8 -51.834 -24 -69.501s-36.667 -26.5 -62 -26.5h-84c-25.333 0 -46 9 -62 27s-24 41 -24 69v264h-158c-29.333 0 -52.333 7.83301 -69 23.5s-25 36.5 -25 62.5v64c0 30 8.16699 53.167 24.5 69.5s39.5 24.5 69.5 24.5h328
c25.333 0 46 -8.66699 62 -26s24 -40 24 -68z" />
    <glyph glyph-name="threesuperior" unicode="&#xb3;" 
d="M760 -86l-254 0.00195312c-25.333 0 -46 9 -62 27s-24 41 -24 69v234c0 29.333 7.83301 52.666 23.5 69.999s36.5 26 62.5 26h254c24.667 0 45.167 -9 61.5 -27s24.5 -41 24.5 -69v-234c0 -28.667 -8 -51.834 -24 -69.501s-36.667 -26.5 -62 -26.5z" />
    <glyph glyph-name="Agrave" unicode="&#xc0;" 
d="M379 10l0.00195312 413.999c0 18 2.33301 32.333 7 43s16.667 24.334 36 41.001l463 395v72l-82 67l-445 -378c-11.333 -10 -22.5 -17 -33.5 -21s-22.833 -6 -35.5 -6c-20.667 0 -39.167 8.16699 -55.5 24.5s-24.5 35.5 -24.5 57.5c0 14 3.16699 27.333 9.5 40
s15.5 24 27.5 34l493 421c11.333 10.667 21.666 17.834 30.999 21.501s19.666 5.5 30.999 5.5c12.667 0 25.167 -3 37.5 -9s31.833 -20 58.5 -42l88 -76l1 -1c47.333 -40.667 71 -78 71 -112v-124c0 -18.667 -2.5 -33.667 -7.5 -45s-16.833 -25 -35.5 -41l-463 -396v-385
c0 -28.667 -8 -51.834 -24 -69.501s-36.667 -26.5 -62 -26.5s-46 9 -62 27s-24 41 -24 69z" />
    <glyph glyph-name="Acircumflex" unicode="&#xc2;" horiz-adv-x="4172" 
d="M238 360v435h3698v-435h-3698z" />
    <glyph glyph-name="Adieresis" unicode="&#xc4;" 
d="M1057 1145v-124.998c0 -28.667 -8 -51.834 -24 -69.501s-36.667 -26.5 -62 -26.5s-46 9 -62 27s-24 41 -24 69v125c0 29.333 7.83301 52.666 23.5 69.999s36.5 26 62.5 26c24.667 0 45.167 -9 61.5 -27s24.5 -41 24.5 -69zM381 1145v-124.998
c0 -28.667 -8 -51.834 -24 -69.501s-36.667 -26.5 -62 -26.5s-46 9 -62 27s-24 41 -24 69v125c0 29.333 7.83301 52.666 23.5 69.999s36.5 26 62.5 26c24.667 0 45.167 -9 61.5 -27s24.5 -41 24.5 -69zM633 633.004l-127 -330h256zM889 -19.9961l-62.002 149h-389l-59 -149
c-8 -22 -19.167 -38.5 -33.5 -49.5s-31.166 -16.5 -50.499 -16.5c-24.667 0 -45.167 8.5 -61.5 25.5s-24.5 38.5 -24.5 64.5c0 4.66699 0.833008 10 2.5 16s4.16699 13 7.5 21l322 838c8 22.667 20.167 40.5 36.5 53.5s34.833 19.5 55.5 19.5s38.5 -6.16699 53.5 -18.5
s27.167 -30.5 36.5 -54.5l326 -838c2.66699 -8.66699 4.66699 -16 6 -22s2 -11 2 -15c0 -26 -8 -47.5 -24 -64.5s-36 -25.5 -60 -25.5c-19.333 0 -36.166 5.5 -50.499 16.5s-25.5 27.5 -33.5 49.5z" />
    <glyph glyph-name="Aring" unicode="&#xc5;" 
d="M616 780l-122 -405h276l-117 405h-37zM467 1069v-117h334v117h-334zM465 1241h336c47.333 0 87.833 -16.667 121.5 -50s50.5 -74 50.5 -122v-117c0 -40.667 -13.167 -76.834 -39.5 -108.501s-60.5 -51.5 -102.5 -59.5l218 -752c2 -6 3.5 -12 4.5 -18s1.5 -11.333 1.5 -16
c0 -23.333 -8.33301 -43.166 -25 -59.499s-36.334 -24.5 -59.001 -24.5c-20 0 -37.833 6.5 -53.5 19.5s-26.5 30.167 -32.5 51.5l-64 218h-375l-65 -217c-8 -24.667 -19.167 -42.834 -33.5 -54.501s-32.5 -17.5 -54.5 -17.5s-41.167 8.16699 -57.5 24.5
s-24.5 35.5 -24.5 57.5c0 10 0.333008 17.5 1 22.5s1.66699 9.83301 3 14.5l219 749c-43.333 11.333 -77.666 32.333 -102.999 63s-38 66.334 -38 107.001v117c0 47.333 16.833 87.833 50.5 121.5s74.167 50.5 121.5 50.5z" />
    <glyph glyph-name="AE" unicode="&#xc6;" 
d="M631 664l-105 -289h105v289zM745 1241l215.999 0.00195312c28.667 0 51.834 -8 69.501 -24s26.5 -36.667 26.5 -62c0 -24.667 -9 -45.167 -27 -61.5s-41 -24.5 -69 -24.5h-158v-405h158c28.667 0 51.834 -8 69.501 -24s26.5 -36.667 26.5 -62s-9 -46 -27 -62
s-41 -24 -69 -24h-158v-406h158c28.667 0 51.834 -8 69.501 -24s26.5 -36.667 26.5 -62s-9 -46 -27 -62s-41 -24 -69 -24h-244c-25.333 0 -46 9 -62 27s-24 41 -24 69v193h-166l-86 -223c-8.66699 -22.667 -19.834 -39.334 -33.501 -50.001s-30.5 -16 -50.5 -16
c-24 0 -44.333 8.33301 -61 25s-25 37 -25 61c0 5.33301 0.833008 11.833 2.5 19.5s3.5 14.167 5.5 19.5l416 1139c8.66699 23.333 20.167 39.666 34.5 48.999s40.166 14 77.499 14z" />
    <glyph glyph-name="Eth" unicode="&#xd0;" 
d="M961 664c28.667 0 51.832 -8 69.499 -24s26.5 -36.667 26.5 -62s-9 -46 -27 -62s-41 -24 -69 -24h-656c-29.333 0 -52.666 7.83301 -69.999 23.5s-26 36.5 -26 62.5c0 24.667 9 45.167 27 61.5s41 24.5 69 24.5h656z" />
    <glyph glyph-name="Ntilde" unicode="&#xd1;" 
d="M381 502l-0.00195312 -491.998c0 -28.667 -8 -51.834 -24 -69.501s-36.667 -26.5 -62 -26.5s-46 9 -62 27s-24 41 -24 69v703c0 28.667 7.83301 51.5 23.5 68.5s36.5 25.5 62.5 25.5c24.667 0 48.334 -12.667 71.001 -38l5 -5l514 -545v494
c0 28.667 7.83301 51.5 23.5 68.5s36.5 25.5 62.5 25.5c25.333 0 46 -8.66699 62 -26s24 -40 24 -68v-703c0 -28.667 -8 -51.834 -24 -69.501s-36.667 -26.5 -62 -26.5c-23.333 0 -45.666 11 -66.999 33c-4 4.66699 -7 8 -9 10zM1057 1145l-0.000976562 -52.998
c0 -30.667 -8.33301 -54.5 -25 -71.5s-39.667 -25.5 -69 -25.5c-7.33301 0 -13.666 0.166992 -18.999 0.5s-10.666 0.833008 -15.999 1.5l-547 64c-7.33301 -20 -18.5 -35.667 -33.5 -47s-32.5 -17 -52.5 -17c-25.333 0 -46 8.83301 -62 26.5s-24 40.5 -24 68.5v53
c0 29.333 7.83301 52.666 23.5 69.999s36.5 26 62.5 26c9.33301 0 23.666 -1.33301 42.999 -4l547 -59c6 19.333 16.667 34.666 32 45.999s33.333 17 54 17c24.667 0 45.167 -9 61.5 -27s24.5 -41 24.5 -69z" />
    <glyph glyph-name="Oacute" unicode="&#xd3;" 
d="M231 -66v1287h805v-1287h-805z" />
    <glyph glyph-name="Odieresis" unicode="&#xd6;" 
d="M1057 1145v-124.998c0 -28.667 -8 -51.834 -24 -69.501s-36.667 -26.5 -62 -26.5s-46 9 -62 27s-24 41 -24 69v125c0 29.333 7.83301 52.666 23.5 69.999s36.5 26 62.5 26c24.667 0 45.167 -9 61.5 -27s24.5 -41 24.5 -69zM381 1145v-124.998
c0 -28.667 -8 -51.834 -24 -69.501s-36.667 -26.5 -62 -26.5s-46 9 -62 27s-24 41 -24 69v125c0 29.333 7.83301 52.666 23.5 69.999s36.5 26 62.5 26c24.667 0 45.167 -9 61.5 -27s24.5 -41 24.5 -69zM874 801.004l101 -145.999c31.333 -45.333 52.833 -84.333 64.5 -117
s17.5 -67.334 17.5 -104.001c0 -36 -5.83301 -70.667 -17.5 -104s-33.167 -73 -64.5 -119l-101 -145c-34.667 -52 -71.834 -90.333 -111.501 -115s-82.834 -37 -129.501 -37c-47.333 0 -90.666 12.333 -129.999 37s-76.666 63 -111.999 115l-98 145
c-33.333 49.333 -55.666 90 -66.999 122s-17 65.667 -17 101c0 34.667 5.66699 68 17 100s33.666 72.333 66.999 121l98 146c35.333 51.333 72.666 89.333 111.999 114s82.666 37 129.999 37c46.667 0 89.834 -12.333 129.501 -37s76.834 -62.667 111.501 -114zM711 735.005
c-9.33301 12.667 -21.333 23.3311 -36 31.998s-28.667 13 -42 13c-14 0 -28 -4.16699 -42 -12.5s-25.333 -19.166 -34 -32.499l-135 -200c-2 -3.33301 -5.33301 -8.33301 -10 -15c-20.667 -30 -31 -59.333 -31 -88c0 -28 10.333 -56.333 31 -85
c4.66699 -6.66699 8 -11.667 10 -15l135 -201c9.33301 -13.333 21 -24.5 35 -33.5s27.667 -13.5 41 -13.5s27.333 4.5 42 13.5s26.667 20.167 36 33.5l131 201c1.33301 2 4 5.66699 8 11c23.333 31.333 35 61 35 89c0 28.667 -10.667 58.334 -32 89.001
c-4 6 -7 10.333 -9 13z" />
    <glyph glyph-name="Oslash" unicode="&#xd8;" 
d="M827 743l-297.001 -512.001l58 -112c5.33301 -12 11.5 -20.5 18.5 -25.5s15.833 -7.5 26.5 -7.5c9.33301 0 18.333 2.83301 27 8.5s15.334 13.834 20.001 24.501l184 362c6 12 11 26.833 15 44.5s6 35.167 6 52.5c0 16.667 -2 34 -6 52s-9 32.667 -15 44zM677.999 1036
c-5.33301 12 -11.499 20.5 -18.499 25.5s-15.833 7.5 -26.5 7.5c-9.33301 0 -18.333 -3 -27 -9s-15.334 -13.667 -20.001 -23l-185 -364c-6 -12 -10.833 -26.667 -14.5 -44s-5.5 -34.333 -5.5 -51c0 -18 2 -36 6 -54s8.66699 -32 14 -42l37 -70l297 512zM1040 1106
l-110.001 -185.999l90 -175c11.333 -22.667 20.333 -48.834 27 -78.501s10 -59.167 10 -88.5c0 -31.333 -3.33301 -61.666 -10 -90.999s-15.667 -55 -27 -77l-178 -351c-28 -52.667 -58 -90 -90 -112s-71.667 -33 -119 -33c-48 0 -88.667 11.5 -122 34.5
s-62.333 59.167 -87 108.5l-49 -92c-9.33301 -16 -21 -28.5 -35 -37.5s-29 -13.5 -45 -13.5c-24.667 0 -45.167 8.16699 -61.5 24.5s-24.5 36.833 -24.5 61.5c0 8 1.33301 16.5 4 25.5s6.66699 17.5 12 25.5l109 185l-88 174c-12 23.333 -21.167 49.5 -27.5 78.5
s-9.5 58.833 -9.5 89.5s3.16699 60.667 9.5 90s15.5 55 27.5 77l178 351c27.333 52.667 57 90 89 112s72 33 120 33c48.667 0 89.5 -11.333 122.5 -34s61.167 -58.334 84.5 -107.001l51 92c8.66699 16 19.834 28.167 33.501 36.5s29.167 12.5 46.5 12.5
c23.333 0 43.5 -8.16699 60.5 -24.5s25.5 -36.833 25.5 -61.5c0 -7.33301 -1.5 -15.333 -4.5 -24s-7.16699 -17 -12.5 -25z" />
    <glyph glyph-name="Udieresis" unicode="&#xdc;" 
d="M883 1145v-125.001c0 -30 -7.66699 -53.5 -23 -70.5s-36.333 -25.5 -63 -25.5c-23.333 0 -43 8.83301 -59 26.5s-25 40.5 -27 68.5v126c0 28.667 8.16699 51.834 24.5 69.501s36.833 26.5 61.5 26.5c25.333 0 46 -8 62 -24s24 -37.333 24 -64v-8zM555 1144v-124
c0 -28 -8.33301 -51 -25 -69s-37 -27 -61 -27c-26 0 -46.833 8 -62.5 24s-23.5 37.333 -23.5 64v8v125c0 30 7.66699 53.5 23 70.5s36.333 25.5 63 25.5c22.667 0 42.167 -9 58.5 -27s25.5 -41.333 27.5 -70zM381 855.999l0.000976562 -683.996c0 -24 8.5 -44.333 25.5 -61
s37.167 -25 60.5 -25h330c22.667 0 43 8.66699 61 26s27 37.333 27 60v684c0 29.333 7.83301 52.666 23.5 69.999s36.5 26 62.5 26c24.667 0 45.167 -9 61.5 -27s24.5 -41 24.5 -69v-684c0 -70.667 -25.333 -131.334 -76 -182.001s-111.334 -76 -182.001 -76h-330
c-72 0 -133.333 25.167 -184 75.5s-76 111.166 -76 182.499v684c0 29.333 7.83301 52.666 23.5 69.999s36.5 26 62.5 26c24.667 0 45.167 -9 61.5 -27s24.5 -41 24.5 -69z" />
    <glyph glyph-name="Thorn" unicode="&#xde;" 
d="M885 1145c0 29.333 7.83301 52.667 23.5 70s36.5 26 62.5 26c24.667 0 45.167 -9 61.5 -27s24.5 -41 24.5 -69v-1137c0 -28.667 -8 -51.5 -24 -68.5s-36.667 -25.5 -62 -25.5s-46 8.66699 -62 26s-24 40 -24 68v484h-504v-484c0 -28.667 -8 -51.5 -24 -68.5
s-36.667 -25.5 -62 -25.5s-46 8.66699 -62 26s-24 40 -24 68v656h676v481z" />
    <glyph glyph-name="agrave" unicode="&#xe0;" 
d="M209 1145c0 29.333 7.83301 52.6689 23.5 70.002s36.5 26 62.5 26c24.667 0 45.167 -9 61.5 -27s24.5 -41 24.5 -69v-481h504v481c0 29.333 7.83301 52.666 23.5 69.999s36.5 26 62.5 26c24.667 0 45.167 -9 61.5 -27s24.5 -41 24.5 -69v-653h-338v-482
c0 -28.667 -8 -51.834 -24 -69.501s-36.667 -26.5 -62 -26.5s-46 9 -62 27s-24 41 -24 69v482h-338v653z" />
    <glyph glyph-name="quoteright" unicode="&#x2019;" 
d="M549 1241l146.998 0.000976562c34.667 0 60.834 -7.33301 78.501 -22s26.5 -36 26.5 -64c0 -4.66699 -0.333008 -9.5 -1 -14.5s-1.66699 -10.5 -3 -16.5l-160 -559c-7.33301 -23.333 -18.666 -41.333 -33.999 -54s-33.333 -19 -54 -19c-25.333 0 -46 9 -62 27
s-24 41 -24 69v557c0 29.333 7.83301 52.666 23.5 69.999s36.5 26 62.5 26z" />
    <glyph glyph-name="guilsinglleft" unicode="&#x2039;" 
d="M880 76l-599.001 352.001c-16.667 10 -29.167 21.667 -37.5 35s-12.5 27.666 -12.5 42.999v141c0 16.667 4.33301 32 13 46s21 25.333 37 34l600 352c9.33301 5.33301 18.333 9.5 27 12.5s16.667 4.5 24 4.5c24 0 44.333 -8 61 -24s25 -36 25 -60
c0 -16.667 -4.33301 -32 -13 -46s-20.667 -25.333 -36 -34l-607 -352l607 -357c16 -10 28.167 -21.833 36.5 -35.5s12.5 -28.5 12.5 -44.5c0 -24 -8.16699 -44 -24.5 -60s-36.833 -24 -61.5 -24c-7.33301 0 -15.166 1.33301 -23.499 4s-17.833 7 -28.5 13z" />
    <glyph glyph-name="guilsinglright" unicode="&#x203a;" 
d="M385 1079l600 -351.999c15.333 -8.66699 27.333 -20 36 -34s13 -29.333 13 -46v-141c0 -16 -4.33301 -30.833 -13 -44.5s-20.667 -24.834 -36 -33.501l-600 -352c-10.667 -6 -20 -10.333 -28 -13s-15.667 -4 -23 -4c-24.667 0 -45.167 8 -61.5 24s-24.5 36 -24.5 60
c0 16.667 4.33301 32 13 46s20.667 25.333 36 34l606 352l-606 357c-16.667 10 -29 21.667 -37 35s-12 28.333 -12 45c0 24 8.16699 44 24.5 60s36.833 24 61.5 24c6.66699 0 14.5 -1.5 23.5 -4.5s18.167 -7.16699 27.5 -12.5z" />
    <glyph glyph-name=".null" horiz-adv-x="0" 
 />
    <glyph glyph-name="nonmarkingreturn" horiz-adv-x="633" 
 />
  </font>
</defs>
</svg>
