<?xml version="1.0" encoding="utf-8"?>
<!-- Generator: Adobe Illustrator 24.3.0, SVG Export Plug-In . SVG Version: 6.00 Build 0)  -->
<svg version="1.1" id="Capa_1" xmlns="http://www.w3.org/2000/svg" xmlns:xlink="http://www.w3.org/1999/xlink" x="0px" y="0px"
	 viewBox="0 0 129.3 154" style="enable-background:new 0 0 129.3 154;" xml:space="preserve">
<style type="text/css">
	.st0{fill:#FF63ED;}
	.st1{fill:#E207B9;}
	.st2{fill:#DDBEFF;}
	.st3{fill:#9448F5;}
	.st4{fill:#B98EFF;}
	.st5{fill:#6D00CA;}
	.st6{fill:#88F8D8;}
	.st7{fill:#007EA8;}
</style>
<g>
	<g>
		<path class="st0" d="M79,118.4v20.8c0,3.3-2.6,5.9-5.9,5.9h-9.8c-3.3,0-5.9-2.6-5.9-5.9c0-3.3,2.6-5.9,5.9-5.9h3.9v-14.9L79,118.4
			L79,118.4z"/>
	</g>
	<g>
		<path class="st0" d="M51.6,118.4v20.8c0,3.3-2.6,5.9-5.9,5.9h-9.8c-3.3,0-5.9-2.6-5.9-5.9c0-3.3,2.6-5.9,5.9-5.9h3.9v-14.9
			L51.6,118.4L51.6,118.4z"/>
	</g>
	<g>
		<g>
			<path class="st1" d="M73.1,146.9h-9.8c-4.3,0-7.7-3.5-7.7-7.7s3.5-7.7,7.7-7.7h2.1v-13.1c0-1,0.8-1.8,1.8-1.8H79
				c1,0,1.8,0.8,1.8,1.8v20.8C80.8,143.4,77.4,146.9,73.1,146.9L73.1,146.9z M63.3,135.1c-2.2,0-4.1,1.8-4.1,4.1
				c0,2.2,1.8,4.1,4.1,4.1h9.8c2.2,0,4.1-1.8,4.1-4.1v-19H69v13.1c0,1-0.8,1.8-1.8,1.8H63.3z"/>
		</g>
	</g>
	<g>
		<g>
			<path class="st1" d="M45.7,146.9h-9.8c-4.3,0-7.7-3.5-7.7-7.7s3.5-7.7,7.7-7.7h2.1v-13.1c0-1,0.8-1.8,1.8-1.8h11.8
				c1,0,1.8,0.8,1.8,1.8v20.8C53.4,143.4,49.9,146.9,45.7,146.9z M35.8,135.1c-2.2,0-4.1,1.8-4.1,4.1c0,2.2,1.8,4.1,4.1,4.1h9.8
				c2.2,0,4.1-1.8,4.1-4.1v-19h-8.1v13.1c0,1-0.8,1.8-1.8,1.8H35.8z"/>
		</g>
	</g>
	<path class="st1" d="M39.8,118.4h11.8v7.9H39.8V118.4z"/>
	<path class="st1" d="M67.2,118.4H79v7.9H67.2V118.4z"/>
	<path class="st2" d="M112.6,80.4v25.1c0,7.1-5.8,12.9-12.9,12.9h-85c-7.1,0-12.9-5.8-12.9-12.9V80.4L112.6,80.4z"/>
	<path class="st3" d="M123.2,55.4v50.1c0,7.1-5.8,12.9-12.9,12.9H99.7c7.1,0,12.9-5.8,12.9-12.9V55.4c0-7.1-5.8-12.9-12.9-12.9h10.6
		C117.4,42.5,123.2,48.2,123.2,55.4z"/>
	<path class="st4" d="M112.6,55.4v25.1H1.8V55.4c0-7.1,5.8-12.9,12.9-12.9h85C106.8,42.5,112.6,48.2,112.6,55.4L112.6,55.4z"/>
	<path class="st2" d="M73.3,53H21c-3.2,0-5.8,2.6-5.8,5.8v5.4c0,3.2,2.6,5.8,5.8,5.8h52.3c3.2,0,5.8-2.6,5.8-5.8v-5.4
		C79.1,55.5,76.5,53,73.3,53L73.3,53z"/>
	<g>
		<path class="st5" d="M73.3,71.8H21c-4.2,0-7.6-3.4-7.6-7.6v-5.4c0-4.2,3.4-7.6,7.6-7.6h52.3c4.2,0,7.6,3.4,7.6,7.6v5.4
			C80.9,68.3,77.5,71.8,73.3,71.8L73.3,71.8z M21,54.8c-2.2,0-4,1.8-4,4v5.4c0,2.2,1.8,4,4,4h52.3c2.2,0,4-1.8,4-4v-5.4
			c0-2.2-1.8-4-4-4L21,54.8z"/>
	</g>
	<path class="st6" d="M73.3,89.7H21c-3.2,0-5.8,2.6-5.8,5.8v7.8c0,3.2,2.6,5.8,5.8,5.8h52.3c3.2,0,5.8-2.6,5.8-5.8v-7.8
		C79.1,92.3,76.5,89.7,73.3,89.7L73.3,89.7z"/>
	<g>
		<path class="st7" d="M73.3,110.9H21c-4.2,0-7.6-3.4-7.6-7.6v-7.8c0-4.2,3.4-7.6,7.6-7.6h52.3c4.2,0,7.6,3.4,7.6,7.6v7.8
			C80.9,107.5,77.5,110.9,73.3,110.9z M21,91.5c-2.2,0-4,1.8-4,4v7.8c0,2.2,1.8,4,4,4h52.3c2.2,0,4-1.8,4-4v-7.8c0-2.2-1.8-4-4-4
			L21,91.5z"/>
	</g>
	<circle class="st7" cx="59.8" cy="97.4" r="2.7"/>
	<g>
		<path class="st7" d="M52.8,103.9H41.4c-1,0-1.8-0.8-1.8-1.8s0.8-1.8,1.8-1.8h11.4c1,0,1.8,0.8,1.8,1.8S53.8,103.9,52.8,103.9z"/>
	</g>
	<circle class="st7" cx="34.5" cy="97.4" r="2.7"/>
	<circle class="st0" cx="95.3" cy="61.4" r="7.1"/>
	<g>
		<path class="st1" d="M95.3,70.4c-4.9,0-9-4-9-9s4-9,9-9c4.9,0,9,4,9,9S100.3,70.4,95.3,70.4z M95.3,56.2c-2.9,0-5.3,2.4-5.3,5.3
			s2.4,5.3,5.3,5.3c2.9,0,5.3-2.4,5.3-5.3C100.6,58.5,98.3,56.2,95.3,56.2z"/>
	</g>
	<path class="st0" d="M102.5,99.4v5.7c0,2.2-1.8,4.1-4.1,4.1h-5.6c-2.2,0-4.1-1.8-4.1-4.1v-5.7H102.5z"/>
	<path class="st0" d="M102.5,93.7v5.7H88.7v-5.7c0-2.2,1.8-4.1,4.1-4.1h5.6C100.6,89.7,102.5,91.5,102.5,93.7L102.5,93.7z"/>
	<path class="st1" d="M98.4,87.9h-5.6c-3.2,0-5.9,2.6-5.9,5.9V105c0,3.2,2.6,5.9,5.9,5.9h5.6c3.2,0,5.9-2.6,5.9-5.9
		c0-4.5,0-5.9,0-11.3C104.3,90.5,101.7,87.9,98.4,87.9L98.4,87.9z M90.5,93.7c0-1.2,1-2.2,2.2-2.2h5.6c1.2,0,2.2,1,2.2,2.2v3.8H90.5
		L90.5,93.7z M100.6,105c0,1.2-1,2.2-2.2,2.2h-5.6c-1.2,0-2.2-1-2.2-2.2v-3.8h10.1V105z"/>
	<path class="st5" d="M110.3,40.6H99.7h-85C6.6,40.6,0,47.2,0,55.4v25.1v25.1c0,8.1,6.6,14.7,14.7,14.7h85h10.6
		c8.1,0,14.7-6.6,14.7-14.7V55.4C125,47.2,118.4,40.6,110.3,40.6z M3.7,55.4c0-6.1,5-11.1,11.1-11.1h85c6.1,0,11.1,5,11.1,11.1v23.2
		H3.7L3.7,55.4z M99.7,116.5h-85c-6.1,0-11.1-5-11.1-11.1V82.3h107.1v23.2C110.7,111.6,105.8,116.5,99.7,116.5L99.7,116.5z
		 M121.3,105.5c0,6.1-5,11.1-11.1,11.1h-0.9c3.1-2.7,5-6.7,5-11.1c0-1.4,0-48.7,0-50.1c0-4.2-1.8-8.2-5-11.1h0.9
		c6.1,0,11.1,5,11.1,11.1L121.3,105.5z"/>
</g>
</svg>
