<?xml version="1.0" encoding="utf-8"?>
<!-- Generator: Adobe Illustrator 24.3.0, SVG Export Plug-In . SVG Version: 6.00 Build 0)  -->
<svg version="1.1" id="Capa_1" xmlns="http://www.w3.org/2000/svg" xmlns:xlink="http://www.w3.org/1999/xlink" x="0px" y="0px"
	 viewBox="0 0 150 147" style="enable-background:new 0 0 150 147;" xml:space="preserve">
<style type="text/css">
	.st0{fill:#A4BCFF;}
	.st1{fill:#FF9BFF;}
	.st2{fill:#565EEC;}
	.st3{fill:#FFFF6F;}
	.st4{fill:#E207B9;}
	.st5{fill:#7181FF;}
	.st6{fill:#2115C2;}
	.st7{fill:#FFD600;}
	.st8{fill:#FF9900;}
</style>
<g>
	<path class="st0" d="M114.6,40.4H70.7c-1.9,12.3-12.5,21.8-25.4,21.8c-12.8,0-23.4-9.4-25.4-21.7c-7.1,0.8-12.6,6.8-12.6,14v49.5
		c0,7.8,6.3,14.1,14.1,14.1h93c7.8,0,14.1-6.3,14.1-14.1V54.5C128.7,46.7,122.4,40.4,114.6,40.4z"/>
	<circle class="st1" cx="45.3" cy="36.5" r="25.7"/>
	<path class="st2" d="M53.4,82v1c0,4.4-3.6,8-8,8s-8-3.6-8-8v-1c-5.8,1.7-9.7,5.1-9.7,9c0,5.6,8,10.1,17.8,10.1S63.1,96.5,63.1,91
		C63.1,87,59.1,83.6,53.4,82L53.4,82z"/>
	<path class="st2" d="M45.3,62.2c-2.8,0-5.5-0.4-8-1.3v22.1c0,4.4,3.6,8,8,8s8-3.6,8-8V60.9C50.8,61.7,48.1,62.2,45.3,62.2
		L45.3,62.2z"/>
	<ellipse class="st3" cx="92.6" cy="76.4" rx="19.5" ry="12.6"/>
	<circle class="st4" cx="58.7" cy="33.8" r="2.8"/>
	<g>
		<path class="st4" d="M51.4,40.7h-12c-1,0-1.9-0.8-1.9-1.9c0-1,0.8-1.9,1.9-1.9h12c1,0,1.9,0.8,1.9,1.9
			C53.2,39.8,52.4,40.7,51.4,40.7L51.4,40.7z"/>
	</g>
	<circle class="st4" cx="32" cy="33.8" r="2.8"/>
	<path class="st5" d="M114.6,118.2c-4.1,0-88.9,0-93,0c-7.8,0-14.1-6.3-14.1-14.1v16c0,7.8,6.3,14.1,14.1,14.1h93
		c7.8,0,14.1-6.3,14.1-14.1v-16C128.7,111.9,122.4,118.2,114.6,118.2z"/>
	<g>
		<path class="st6" d="M114.6,38.5H70.7c-0.9,0-0.9,0.6-1,1.5C68.8,45.6,65.3,52.3,61,56c-4.3,3.7-9.9,5.5-15.7,5.5
			c-5.7,0-12.7-2.5-17-6.2c-4.3-3.7-6.9-9.4-7.8-14.9c-0.2-1,0.2-1.9-0.8-1.8c-8.1,0.9-14.2,7.7-14.2,15.9v49.5v16
			c0,8.8,7.2,16,16,16h93c8.8,0,16-7.2,16-16v-16V54.5C130.6,45.7,123.4,38.5,114.6,38.5L114.6,38.5z M9.3,54.5
			c0-5.7,3.9-10.5,9.2-11.9c1.3,5.7,5.2,10.2,9.6,14c5,4.3,10.6,6,17.2,6c6.6,0,11.5-1.9,16.5-6.3c4.5-3.9,9.2-8.3,10.4-14.1h42.3
			c6.8,0,12.3,5.5,12.3,12.3v49.5c0,6.8-5.5,12.3-12.3,12.3h-93c-6.8,0-12.3-5.5-12.3-12.3L9.3,54.5z M126.8,114.3v5.8
			c0,6.8-5.5,12.3-12.3,12.3h-93c-6.8,0-12.3-5.5-12.3-12.3v-5.8c3,3.6,7.5,5.7,12.3,5.7h93C119.3,120.1,123.8,117.9,126.8,114.3z"
			/>
		<path class="st6" d="M45.3,62.2c-2.8,0-5.5-0.4-8-1.3v9.7c2.6,0.6,5.3,0.9,8,0.9c2.8,0,5.4-0.3,8-0.9v-9.7
			C50.8,61.7,48.1,62.2,45.3,62.2z"/>
		<path class="st6" d="M55.2,80.6V60.9c0-1.3-1.2-1-2.4-0.6c-2.4,0.8-4.9,1.2-7.4,1.2s-5-0.4-7.4-1.2c-1.2-0.4-2.4-0.7-2.4,0.6v19.7
			c-6,2.1-9.7,6-9.7,10.3c0,6.7,8.6,11.9,19.6,11.9S65,97.6,65,91C65,86.6,61.3,82.7,55.2,80.6L55.2,80.6z M39.2,63.3
			c4,0.9,8.3,0.9,12.3,0v19.6c0,3.4-2.8,6.2-6.2,6.2c-3.4,0-6.2-2.8-6.2-6.2C39.2,77.2,39.2,69.7,39.2,63.3L39.2,63.3z M57,96.5
			c-3.1,1.7-7.2,2.7-11.6,2.7s-8.6-1-11.6-2.7c-2.7-1.6-4.3-3.5-4.3-5.5c0-2.4,2.3-4.8,6.1-6.4c0.8,4.7,4.9,8.3,9.7,8.3
			c4.8,0,9-3.5,9.7-8.3c3.8,1.6,6.1,4,6.1,6.4C61.2,92.9,59.7,94.9,57,96.5z"/>
	</g>
	<path class="st7" d="M92.6,88.9C81.8,88.9,73,83.3,73,76.4v12.1c0,6.9,8.7,12.6,19.5,12.6s19.5-5.6,19.5-12.6V76.4
		C112.1,83.3,103.4,88.9,92.6,88.9L92.6,88.9z"/>
	<path class="st8" d="M114,76.4c0-4-2.3-7.7-6.6-10.5c-4-2.6-9.3-4-14.8-4c-5.6,0-10.8,1.4-14.8,4c-4.2,2.7-6.6,6.4-6.6,10.5v0v12.1
		c0,4,2.3,7.7,6.6,10.5c4,2.6,9.3,4,14.8,4c5.6,0,10.8-1.4,14.8-4c4.2-2.7,6.6-6.4,6.6-10.5V76.4C114,76.4,114,76.4,114,76.4z
		 M92.6,65.6c9.6,0,17.7,4.9,17.7,10.7c0,6.3-8.9,10.7-17.7,10.7c-8.8,0-17.7-4.5-17.7-10.7C74.9,70.5,83,65.6,92.6,65.6L92.6,65.6z
		 M110.2,84.6v3.9c0,5.8-8.1,10.7-17.7,10.7s-17.7-4.9-17.7-10.7v-3.9c0.8,0.8,1.9,1.6,2.9,2.3c4,2.6,9.3,4,14.8,4
		c5.6,0,10.8-1.4,14.8-4C108.4,86.2,109.4,85.4,110.2,84.6z"/>
	<g>
		<path class="st4" d="M45.3,64c-15.2,0-27.5-12.3-27.5-27.5S30.2,9,45.3,9s27.5,12.3,27.5,27.5S60.5,64,45.3,64z M45.3,12.7
			c-13.1,0-23.8,10.7-23.8,23.8s10.7,23.8,23.8,23.8s23.8-10.7,23.8-23.8S58.5,12.7,45.3,12.7z"/>
	</g>
</g>
</svg>
