<?xml version="1.0" encoding="utf-8"?>
<!-- Generator: Adobe Illustrator 24.3.0, SVG Export Plug-In . SVG Version: 6.00 Build 0)  -->
<svg version="1.1" id="Capa_1" xmlns="http://www.w3.org/2000/svg" xmlns:xlink="http://www.w3.org/1999/xlink" x="0px" y="0px"
	 viewBox="0 0 145.5 135.9" style="enable-background:new 0 0 145.5 135.9;" xml:space="preserve">
<style type="text/css">
	.st0{fill:#FF9900;}
	.st1{fill:#F95116;}
	.st2{fill:#FF9BFF;}
	.st3{fill:#E207B9;}
	.st4{fill:#88F8D8;}
	.st5{fill:#007EA8;}
	.st6{fill:#565EEC;}
	.st7{fill:#2115C2;}
</style>
<g>
	<g>
		<path class="st0" d="M86.7,92.9v22.2c0,3.5-2.8,6.3-6.3,6.3H69.9c-3.5,0-6.3-2.8-6.3-6.3c0-3.5,2.8-6.3,6.3-6.3h4.2V92.9H86.7z"/>
	</g>
	<g>
		<g>
			<path class="st1" d="M80.4,123.3H69.9c-4.5,0-8.1-3.6-8.1-8.1c0-4.5,3.6-8.1,8.1-8.1h2.4V92.9c0-1,0.8-1.8,1.8-1.8h12.6
				c1,0,1.8,0.8,1.8,1.8v22.2C88.5,119.7,84.9,123.3,80.4,123.3L80.4,123.3z M69.9,110.7c-2.5,0-4.5,2-4.5,4.5c0,2.5,2,4.5,4.5,4.5
				h10.5c2.5,0,4.5-2,4.5-4.5V94.8h-8.9v14.1c0,1-0.8,1.8-1.8,1.8H69.9z"/>
		</g>
	</g>
	<path class="st1" d="M74.1,92.9h12.6v8.4H74.1V92.9z"/>
	<path class="st0" d="M54.6,103.8c-0.1,0-0.2,0-0.2,0c-3.1,0-5.7-2.5-5.9-5.6c-0.1-2-1.7-3.6-3.7-3.7v14.5h-4.2
		c-3.5,0-6.3,2.8-6.3,6.3s2.8,6.3,6.3,6.3h10.5c3.5,0,6.3-2.8,6.3-6.3v-12.3C56.6,103.4,55.6,103.7,54.6,103.8L54.6,103.8z"/>
	<g>
		<path class="st1" d="M51.1,123.3H40.6c-4.5,0-8.1-3.6-8.1-8.1c0-4.5,3.6-8.1,8.1-8.1H43V94.4c0-0.5,0.2-1,0.6-1.3
			c0.4-0.3,0.8-0.5,1.3-0.5c2.9,0.1,5.3,2.5,5.4,5.4c0.1,2.2,1.9,4,4.2,3.9c0.7,0,1.4-0.2,1.9-0.6c0.6-0.3,1.3-0.4,1.9,0
			c0.6,0.3,0.9,0.9,0.9,1.6v12.3C59.2,119.7,55.6,123.3,51.1,123.3L51.1,123.3z M40.6,110.7c-2.5,0-4.5,2-4.5,4.5
			c0,2.5,2,4.5,4.5,4.5h10.5c2.5,0,4.5-2,4.5-4.5v-9.7c-0.3,0-0.6,0.1-0.9,0.1c0,0,0,0,0,0c-4.3,0.2-7.8-3.1-8-7.4
			c0-0.1,0-0.2,0-0.2v10.9c0,1-0.8,1.8-1.8,1.8L40.6,110.7L40.6,110.7z M54.6,103.8L54.6,103.8L54.6,103.8z"/>
	</g>
	<path class="st2" d="M29.8,79.5c-0.1-2-1.7-3.6-3.7-3.7c-4.9-0.2-9.3-2.7-12-6.4l-3.9,5.8c-5.1,7.6,0.3,17.8,9.5,17.8h19.1
		C33.7,90.5,30,85.4,29.8,79.5z"/>
	<path class="st2" d="M121.2,75.1l-12.4-18.4c-2.9,1.5-6.1,2.4-9.6,2.4c-11.4,0-20.6-9.2-20.6-20.6c0-6.3,2.8-12,7.3-15.7L75.2,6.9
		c-4.5-6.7-14.4-6.7-18.9,0L22.4,57.1c0.3,1.1,0.4,2.2,0.5,3.3c0.1,2,1.7,3.6,3.7,3.7c8.1,0.3,14.7,6.9,15,15c0.1,2,1.7,3.6,3.7,3.7
		c6.4,0.2,11.9,4.5,14,10.2h52.5C120.9,92.9,126.3,82.7,121.2,75.1L121.2,75.1z"/>
	<circle class="st3" cx="82.1" cy="64.6" r="3.5"/>
	<g>
		<path class="st3" d="M73.1,72.6H58.3c-1,0-1.8-0.8-1.8-1.8c0-1,0.8-1.8,1.8-1.8h14.8c1,0,1.8,0.8,1.8,1.8
			C74.9,71.8,74.1,72.6,73.1,72.6z"/>
	</g>
	<circle class="st3" cx="49.3" cy="64.6" r="3.5"/>
	<g>
		<path class="st3" d="M38.8,94.8H19.7c-5,0-9.4-2.6-11.7-7c-2.3-4.4-2.1-9.5,0.7-13.6l3.9-5.8c0.3-0.5,0.9-0.8,1.5-0.8
			c0.6,0,1.2,0.3,1.5,0.8c2.5,3.5,6.4,5.5,10.6,5.7c2.9,0.1,5.3,2.5,5.4,5.4c0.2,5.1,3.2,9.7,7.9,11.9c0.8,0.4,1.2,1.2,1,2.1
			C40.4,94.2,39.6,94.8,38.8,94.8L38.8,94.8z M14.3,72.4l-2.6,3.8c-2,3-2.2,6.7-0.5,9.9c1.7,3.2,4.9,5.1,8.5,5.1H33
			c-3-3-4.9-7.1-5.1-11.6c0-1-0.9-1.9-1.9-1.9C21.6,77.4,17.4,75.6,14.3,72.4L14.3,72.4z"/>
	</g>
	<g>
		<path class="st3" d="M111.7,94.8H59.3c-0.8,0-1.5-0.5-1.7-1.2c-1.9-5.2-6.9-8.8-12.4-9.1c-2.9-0.1-5.3-2.5-5.4-5.4
			c-0.3-7.1-6.1-12.9-13.2-13.2c-2.9-0.1-5.3-2.5-5.4-5.4c0-1-0.2-1.9-0.4-2.9c-0.1-0.5,0-1,0.3-1.5L54.7,5.8
			c2.5-3.7,6.6-5.8,11-5.8c4.4,0,8.5,2.2,11,5.8l10.7,15.9c0.5,0.8,0.4,1.8-0.3,2.4c-4.2,3.6-6.7,8.8-6.7,14.3
			c0,10.3,8.4,18.8,18.8,18.8c3.1,0,6-0.7,8.8-2.2c0.8-0.4,1.9-0.2,2.4,0.6l12.4,18.4c2.8,4.1,3.1,9.2,0.7,13.6
			C121.1,92.1,116.7,94.8,111.7,94.8L111.7,94.8z M60.5,91.1h51.2c3.6,0,6.8-1.9,8.5-5.1c1.7-3.2,1.5-6.9-0.5-9.9l-11.5-17.1
			c-2.8,1.2-5.9,1.9-9,1.9c-12.4,0-22.4-10.1-22.4-22.4c0-6.1,2.4-11.8,6.7-16L73.7,7.9c-1.8-2.7-4.7-4.2-8-4.2
			c-3.2,0-6.1,1.5-8,4.2L24.4,57.4c0.2,0.9,0.3,1.9,0.4,2.9c0,1,0.9,1.9,1.9,1.9c9,0.3,16.4,7.7,16.7,16.7c0,1,0.9,1.9,1.9,1.9
			C51.9,81.1,57.8,85.1,60.5,91.1L60.5,91.1z"/>
	</g>
	<g>
		<path class="st4" d="M54.3,103.8c-3.1,0-5.7-2.5-5.9-5.6c-0.1-2-1.7-3.6-3.7-3.7c-8.1-0.3-14.7-6.9-15-15c-0.1-2-1.7-3.6-3.7-3.7
			c-8.1-0.3-14.7-6.9-15-15c-0.1-2-1.7-3.6-3.7-3.7C4.2,57,1.7,54.3,1.8,51c0.1-3.2,2.9-5.8,6.1-5.6c8.1,0.3,14.7,6.9,15,15
			c0.1,2,1.7,3.6,3.7,3.7c8.1,0.3,14.7,6.9,15,15c0.1,2,1.7,3.6,3.7,3.7c8.1,0.3,14.7,6.9,15,15c0.1,3.2-2.4,6-5.6,6.1
			C54.5,103.8,54.4,103.8,54.3,103.8L54.3,103.8z"/>
	</g>
	<g>
		<g>
			<path class="st5" d="M54.3,105.6c-4.2,0-7.5-3.3-7.7-7.4c0-1-0.9-1.9-1.9-1.9c-9-0.3-16.4-7.7-16.7-16.7c0-1-0.9-1.9-1.9-1.9
				c-9-0.3-16.4-7.7-16.7-16.7c0-1-0.9-1.9-1.9-1.9c-2.1-0.1-4-1-5.4-2.5S-0.1,53,0,51c0.2-4.2,3.7-7.6,8-7.4
				c9,0.3,16.4,7.7,16.7,16.7c0,1,0.9,1.9,1.9,1.9c9,0.3,16.4,7.7,16.7,16.7c0,1,0.9,1.9,1.9,1.9c9,0.3,16.4,7.7,16.7,16.7
				c0.2,4.2-3.2,7.8-7.4,8C54.5,105.6,54.4,105.6,54.3,105.6L54.3,105.6z M7.7,47.2c-2.2,0-4,1.7-4,3.9c0,1.1,0.3,2.1,1.1,2.9
				c0.7,0.8,1.7,1.3,2.8,1.3c2.9,0.1,5.3,2.5,5.4,5.4c0.3,7.1,6.1,12.9,13.2,13.2c2.9,0.1,5.3,2.5,5.4,5.4
				c0.3,7.1,6.1,12.9,13.2,13.2c2.9,0.1,5.3,2.5,5.4,5.4c0.1,2.2,1.9,4,4.2,3.9c2.2-0.1,4-2,3.9-4.2c-0.3-7.1-6.1-12.9-13.2-13.2
				c-2.9-0.1-5.3-2.5-5.4-5.4c-0.3-7.1-6.1-12.9-13.2-13.2c-2.9-0.1-5.3-2.5-5.4-5.4C20.8,53.3,15,47.5,7.9,47.2
				C7.8,47.2,7.8,47.2,7.7,47.2L7.7,47.2z"/>
		</g>
	</g>
	<circle class="st6" cx="99.2" cy="38.5" r="20.6"/>
	<g>
		<path class="st7" d="M99.2,60.9c-12.4,0-22.4-10.1-22.4-22.4s10.1-22.4,22.4-22.4s22.4,10.1,22.4,22.4S111.5,60.9,99.2,60.9z
			 M99.2,19.7c-10.3,0-18.8,8.4-18.8,18.8s8.4,18.8,18.8,18.8s18.8-8.4,18.8-18.8S109.5,19.7,99.2,19.7z"/>
	</g>
</g>
</svg>
